<?xml version="1.0" standalone="no"?>
<!DOCTYPE svg PUBLIC "-//W3C//DTD SVG 20010904//EN"
 "http://www.w3.org/TR/2001/REC-SVG-20010904/DTD/svg10.dtd">
<svg version="1.0" xmlns="http://www.w3.org/2000/svg"
 width="1851.000000pt" height="1850.000000pt" viewBox="0 0 1851.000000 1850.000000"
 preserveAspectRatio="xMidYMid meet">
<metadata>
Created by potrace 1.16, written by Peter Selinger 2001-2019
</metadata>
<g transform="translate(0.000000,1850.000000) scale(0.100000,-0.100000)"
fill="#000000" stroke="none">
<path d="M0 9250 l0 -9250 9255 0 9255 0 0 9250 0 9250 -9255 0 -9255 0 0
-9250z m7150 6371 c502 -36 957 -104 1510 -227 285 -64 756 -189 840 -223 22
-9 19 -10 -21 -8 -26 1 -45 5 -43 8 8 13 -231 80 -255 71 -9 -3 -13 -1 -8 3 9
10 -200 67 -226 61 -9 -2 -15 0 -12 4 3 5 -9 11 -27 15 -18 4 -100 23 -182 42
-118 29 -153 34 -167 24 -27 -16 -36 -14 -13 4 19 14 18 14 -3 15 -13 0 -23
-5 -23 -12 0 -7 -5 -6 -12 4 -15 18 -285 72 -314 62 -16 -5 -16 -4 -4 5 15 11
-1 13 -95 15 -16 1 -40 7 -52 14 -31 18 -70 15 -101 -7 -15 -11 -45 -22 -67
-25 -31 -4 -34 -4 -15 3 l25 9 -23 1 c-16 1 -26 -6 -29 -20 -6 -20 -11 -21
-61 -15 -31 4 -53 4 -50 1 7 -7 32 -13 63 -15 11 0 -6 -12 -40 -26 -33 -13
-78 -33 -100 -43 -60 -28 -68 -29 -99 -14 -16 8 -31 11 -35 6 -3 -5 -17 -14
-31 -20 -25 -11 -25 -11 7 -10 17 1 29 5 27 9 -9 14 12 16 31 2 16 -12 16 -14
2 -14 -9 0 -52 -16 -94 -37 -43 -20 -84 -36 -90 -36 -7 0 -11 -3 -8 -5 9 -10
-53 -31 -77 -26 -13 2 -17 2 -10 -2 23 -11 12 -24 -15 -18 -17 3 -23 2 -16 -3
8 -6 2 -13 -20 -21 -18 -8 -40 -18 -49 -23 -10 -5 -25 -9 -33 -9 -9 0 -14 -4
-11 -8 3 -5 -16 -17 -42 -28 -26 -10 -80 -36 -120 -56 -40 -21 -80 -35 -90
-32 -13 5 -14 4 -3 -4 16 -12 -3 -27 -21 -16 -6 4 -8 3 -5 -3 3 -5 -10 -17
-29 -26 -42 -21 -50 -21 -35 -4 11 14 5 27 -11 27 -5 0 -7 -4 -4 -9 3 -5 -2
-12 -11 -15 -12 -5 -13 -10 -5 -18 15 -15 -54 -50 -83 -42 -17 4 -18 3 -5 -6
12 -10 11 -11 -9 -6 -18 3 -21 2 -13 -6 9 -9 2 -16 -26 -29 -20 -10 -55 -30
-77 -43 -22 -14 -69 -42 -105 -62 -36 -20 -94 -54 -129 -76 -56 -35 -68 -38
-90 -29 -23 10 -24 10 -8 -2 9 -8 17 -17 17 -19 0 -3 -8 -9 -17 -12 -19 -7
-28 -12 -102 -60 -24 -15 -51 -26 -61 -23 -12 3 -17 0 -14 -8 5 -12 -76 -75
-97 -75 -5 0 -17 -8 -27 -18 -10 -10 -38 -31 -63 -47 -126 -81 -227 -151 -249
-172 -14 -13 -30 -23 -36 -23 -18 0 -47 37 -35 45 6 3 11 2 11 -3 0 -6 7 -13
16 -16 15 -6 15 -4 3 10 -14 17 -16 16 41 54 12 8 33 23 46 33 21 16 27 17 42
5 15 -12 16 -11 3 5 -12 15 -11 17 3 17 9 0 16 -5 16 -11 0 -5 5 -7 11 -3 8 4
7 9 -2 15 -10 6 -7 13 12 28 27 23 35 25 44 11 3 -5 12 -10 18 -10 7 0 4 5 -6
11 -27 16 -2 42 32 34 19 -4 22 -3 11 4 -8 6 -12 11 -10 13 3 2 34 23 69 47
54 37 67 42 82 32 27 -16 36 -14 13 5 -14 11 -15 17 -6 21 7 2 18 10 25 17 7
7 18 11 26 8 8 -3 11 0 8 5 -3 5 24 24 61 43 37 19 69 37 72 40 3 3 18 14 34
24 23 15 33 16 55 7 24 -11 25 -10 7 4 -11 8 -17 18 -13 21 4 4 13 1 22 -6 9
-7 19 -9 23 -5 4 4 1 10 -5 12 -20 7 -15 23 7 23 11 0 20 5 20 11 0 6 9 8 23
4 16 -5 18 -4 8 4 -12 8 -9 12 15 23 16 7 32 18 37 25 4 7 15 9 24 6 10 -4 14
-2 10 4 -3 5 9 17 28 26 21 10 37 12 40 7 3 -6 14 -10 23 -10 16 1 16 2 -1 14
-16 12 -15 15 17 30 41 19 53 20 58 4 3 -9 6 -9 12 0 4 7 1 15 -9 18 -11 5 -4
12 27 29 24 12 69 36 102 54 32 18 65 30 72 27 9 -3 11 0 7 11 -5 13 -1 15 19
11 17 -3 25 -1 22 7 -3 6 21 21 53 35 32 12 65 29 74 36 8 8 23 14 31 14 9 0
18 4 20 8 4 9 132 72 147 72 6 0 11 5 11 10 0 6 4 10 10 10 5 0 34 11 64 25
30 14 63 22 73 19 15 -5 15 -4 3 5 -12 8 -11 11 5 17 11 4 66 29 123 56 57 26
105 48 107 48 3 0 34 13 69 30 36 16 78 32 93 36 15 4 49 17 74 29 39 18 49
20 64 9 12 -9 23 -10 35 -4 10 5 20 6 24 3 3 -3 6 1 6 10 0 22 -80 34 -119 17
-16 -6 -40 -9 -53 -6 -13 3 -17 3 -10 0 22 -10 13 -21 -29 -33 -32 -10 -48
-10 -70 -1 -23 10 -32 10 -44 0 -9 -7 -18 -10 -22 -7 -10 11 105 57 123 50 13
-5 15 -3 9 7 -6 10 -1 12 26 7 27 -5 30 -4 16 4 -10 6 -46 10 -80 9 -82 -2
-87 -2 -82 -10 2 -4 19 -5 37 -3 l33 3 -37 -14 c-20 -8 -52 -21 -70 -30 -74
-33 -111 -46 -121 -39 -5 3 -7 1 -4 -4 9 -14 -17 -24 -40 -17 -16 5 -16 4 -3
-6 12 -9 8 -11 -20 -7 -19 3 -29 3 -22 0 19 -7 14 -20 -10 -26 -28 -8 -70 2
-62 14 3 5 -3 6 -13 2 -14 -6 -13 -9 12 -19 l30 -12 -26 -10 c-14 -6 -92 -42
-172 -81 -81 -39 -149 -71 -152 -71 -3 0 -37 -18 -76 -40 -39 -22 -76 -37 -82
-33 -7 3 -9 2 -4 -2 4 -5 -36 -31 -90 -57 -53 -27 -102 -53 -107 -57 -6 -5
-47 -28 -91 -51 -44 -23 -92 -51 -107 -61 -15 -11 -34 -17 -45 -13 -13 4 -14
3 -5 -4 11 -7 10 -10 -3 -16 -9 -3 -22 -3 -27 1 -6 3 -9 2 -5 -3 3 -5 -45 -40
-106 -78 -62 -38 -131 -82 -153 -97 -23 -16 -44 -26 -46 -23 -3 2 -16 -7 -29
-21 -13 -13 -28 -25 -32 -25 -4 0 -41 -23 -83 -51 -42 -29 -81 -49 -89 -45 -8
3 -14 0 -12 -5 2 -11 -163 -134 -195 -145 -10 -4 -18 -9 -18 -13 0 -3 -25 -22
-55 -41 -30 -19 -55 -38 -55 -42 0 -5 -7 -8 -15 -8 -7 0 -18 -6 -22 -12 -4 -7
-30 -29 -58 -47 -27 -19 -52 -38 -55 -41 -3 -4 -12 -11 -21 -16 -9 -5 -32 -21
-50 -36 -19 -15 -63 -48 -99 -75 -35 -26 -75 -58 -89 -70 -13 -13 -27 -23 -31
-23 -4 0 -22 -15 -41 -32 -19 -18 -50 -44 -68 -58 -35 -25 -62 -48 -115 -98
-16 -15 -39 -34 -51 -42 -13 -8 -46 -36 -75 -63 -28 -26 -56 -44 -62 -41 -6 4
-8 3 -5 -3 3 -5 -24 -36 -60 -69 -96 -85 -198 -180 -269 -250 -54 -53 -65 -59
-78 -47 -9 7 -11 8 -6 1 14 -17 13 -41 -2 -32 -6 4 -8 3 -4 -4 3 -6 -3 -13
-14 -17 -11 -3 -19 -10 -17 -14 4 -14 -72 -73 -85 -65 -7 4 -4 -2 6 -14 15
-17 22 -19 33 -11 11 9 12 9 7 -4 -6 -16 -35 -32 -33 -19 3 19 -3 22 -23 10
-13 -7 -27 -11 -31 -10 -5 2 -7 -2 -5 -8 2 -6 -18 -34 -44 -62 -42 -46 -49
-50 -64 -37 -10 8 -15 9 -11 2 4 -6 3 -14 -2 -17 -5 -4 -8 -13 -7 -21 1 -9
-21 -40 -48 -69 -55 -57 -160 -174 -222 -246 -22 -25 -47 -51 -56 -58 -10 -7
-18 -18 -18 -24 0 -6 -8 -18 -18 -27 -9 -9 -29 -32 -44 -52 -14 -19 -36 -46
-47 -60 -50 -58 -204 -254 -248 -316 -26 -38 -68 -95 -93 -128 -57 -74 -254
-372 -292 -440 -15 -27 -28 -46 -28 -40 0 10 -29 -40 -81 -140 -18 -33 -35
-62 -39 -65 -11 -8 -80 -130 -80 -141 0 -6 -12 -29 -28 -52 -15 -23 -35 -59
-45 -80 -11 -24 -22 -35 -29 -31 -7 4 -8 3 -4 -5 8 -13 -73 -191 -86 -191 -4
0 -8 -7 -8 -15 0 -8 -5 -26 -12 -40 -9 -19 -14 -22 -21 -13 -6 9 -7 8 -3 -5 3
-10 -8 -45 -24 -79 -35 -71 -36 -87 -13 -131 10 -18 18 -39 19 -47 3 -23 23
-70 30 -70 3 0 4 6 1 14 -3 7 0 19 6 25 8 8 6 11 -8 11 -12 0 -16 3 -9 8 6 4
17 25 24 47 7 22 19 50 26 63 8 12 11 22 7 22 -5 0 -3 4 3 8 5 4 23 38 39 75
26 62 30 67 42 51 15 -20 18 -7 4 15 -9 15 21 89 41 102 5 3 10 15 11 27 1 16
4 18 14 10 19 -16 28 -2 16 24 -8 18 -5 30 12 58 12 19 25 45 29 58 4 12 11
20 16 17 4 -3 6 5 3 17 -4 21 -3 22 7 4 9 -14 9 -25 1 -45 -11 -25 -10 -25 4
-6 10 12 13 30 10 46 -4 19 3 44 24 84 29 55 31 56 41 34 l11 -24 -5 24 c-8
37 86 210 97 179 2 -7 2 -1 0 15 -3 15 0 27 6 27 5 0 13 10 17 22 4 13 15 34
24 48 28 41 134 201 145 219 6 9 30 45 55 81 25 36 57 83 71 105 14 22 83 115
152 208 70 92 127 172 127 177 0 6 4 10 9 10 5 0 28 25 51 56 24 32 47 53 55
50 8 -3 11 2 8 14 -3 10 3 23 15 31 11 8 19 16 18 19 -3 14 86 104 91 92 2 -6
9 -9 15 -6 6 4 5 9 -3 14 -13 9 7 40 70 108 17 18 63 70 103 115 39 45 119
129 176 187 58 58 112 116 120 128 l15 24 14 -24 c14 -23 14 -23 8 -1 -3 13
-1 28 5 35 46 55 60 68 60 54 0 -8 5 -18 11 -22 8 -4 9 1 4 15 -5 17 2 31 28
60 29 33 36 36 45 22 9 -13 10 -13 5 5 -3 15 5 28 29 48 18 14 38 31 45 36 6
5 15 16 20 23 4 7 46 46 93 87 47 40 91 82 99 93 7 10 19 16 27 13 8 -3 11 0
8 9 -4 9 3 16 20 21 14 3 26 13 26 21 0 10 6 13 16 9 8 -3 12 -2 9 4 -9 15 21
41 38 34 9 -3 18 -12 21 -21 5 -11 2 -13 -10 -9 -12 5 -15 2 -10 -10 5 -12 2
-15 -10 -10 -12 4 -15 2 -10 -9 3 -8 2 -15 -3 -15 -4 0 -21 -12 -37 -26 -33
-29 -219 -203 -271 -251 -18 -18 -35 -33 -37 -33 -7 0 -343 -341 -396 -401
-30 -35 -76 -86 -102 -114 -26 -27 -48 -54 -48 -58 0 -5 -5 -5 -10 -2 -14 8
-42 -14 -34 -27 3 -5 -9 -26 -28 -47 -18 -20 -60 -68 -93 -106 -33 -38 -68
-77 -77 -87 -10 -10 -16 -18 -13 -18 3 0 -30 -42 -73 -92 -43 -51 -116 -145
-162 -208 -47 -63 -87 -117 -91 -120 -3 -3 -27 -38 -53 -77 -48 -74 -60 -83
-70 -60 -3 6 -3 2 0 -10 3 -16 -9 -41 -45 -91 -28 -39 -51 -72 -51 -75 0 -3
-21 -36 -47 -74 -62 -91 -213 -341 -213 -354 0 -6 -4 -8 -9 -4 -5 3 -13 0 -17
-6 -4 -8 -3 -9 4 -5 19 12 14 -10 -9 -35 l-20 -24 11 25 c10 23 10 23 -3 7 -8
-10 -13 -27 -10 -37 3 -11 0 -20 -6 -20 -6 0 -11 -7 -11 -15 0 -8 -9 -23 -19
-32 -11 -9 -18 -20 -15 -25 3 -4 0 -16 -6 -25 -10 -16 -11 -16 -6 2 6 20 6 20
-9 1 -18 -24 -20 -40 -2 -30 7 5 6 1 -3 -10 -27 -34 -160 -292 -160 -311 0 -7
-6 -18 -14 -24 -7 -6 -19 -32 -26 -56 -7 -25 -17 -45 -21 -45 -5 0 -9 -7 -9
-15 0 -8 -11 -38 -25 -67 -14 -28 -25 -58 -25 -65 0 -7 -6 -12 -12 -10 -17 3
-17 -41 0 -75 18 -37 25 -35 20 3 -3 18 3 52 12 76 16 42 18 44 33 28 10 -9
17 -13 17 -8 0 5 -5 14 -11 20 -9 9 -9 20 0 42 6 17 16 44 22 61 6 16 16 27
21 24 5 -4 8 2 7 12 -2 11 9 42 24 71 15 29 27 59 27 68 0 18 17 20 23 3 2 -7
2 -3 0 9 -5 31 67 168 79 151 6 -9 7 -6 3 8 -4 15 4 39 24 72 16 28 28 53 25
56 -2 3 -1 3 3 0 4 -3 31 43 59 102 47 97 52 104 58 79 l7 -28 20 32 c16 26
17 36 8 47 -7 8 -9 18 -5 21 4 4 12 1 17 -7 8 -12 9 -10 4 7 -6 22 38 115 72
155 8 9 40 58 72 110 52 84 61 93 86 91 25 -2 26 -1 9 11 -17 13 -16 17 22 75
21 33 42 61 47 61 4 0 7 6 7 14 0 7 11 25 25 40 30 32 85 112 85 123 0 10 42
38 53 35 5 -1 6 2 2 8 -3 5 -1 19 5 30 10 18 14 19 28 8 15 -12 16 -11 4 4
-12 15 -4 29 63 115 43 54 85 104 93 111 9 6 13 12 9 12 -8 0 8 21 78 100 28
31 67 78 87 104 20 26 53 65 73 87 31 35 38 39 53 27 13 -11 14 -11 7 1 -6 11
-4 13 9 8 10 -4 15 -3 11 3 -3 6 1 10 9 10 9 0 18 11 22 25 3 14 10 25 15 25
5 0 9 6 9 13 0 6 -16 -6 -35 -27 -20 -21 -38 -36 -42 -32 -4 3 9 23 28 44 19
20 38 42 42 47 5 6 14 3 23 -9 8 -11 14 -15 14 -10 0 6 -5 15 -12 22 -6 6 -8
15 -4 19 4 5 13 1 20 -8 9 -14 15 -15 28 -5 16 12 15 14 -3 33 -14 14 -17 23
-10 27 6 4 11 2 11 -3 0 -6 5 -11 11 -11 6 0 8 7 5 17 -5 11 15 37 66 88 40
40 90 91 112 115 27 30 41 39 49 31 18 -18 28 -12 17 9 -8 16 -8 20 2 18 7 -2
17 -7 21 -13 5 -6 6 -1 2 10 -12 36 -10 40 12 38 16 -2 21 2 17 12 -5 11 -2
13 12 8 13 -5 16 -3 11 10 -4 11 -1 17 7 17 22 0 28 -31 10 -52 -12 -12 -24
-16 -38 -12 -17 6 -19 4 -9 -7 9 -12 -6 -32 -79 -107 -68 -70 -93 -90 -100
-80 -6 9 -7 6 -3 -9 7 -27 -11 -39 -33 -21 -15 12 -16 11 -3 -5 12 -16 11 -21
-14 -47 -16 -17 -33 -26 -42 -23 -12 5 -14 1 -9 -14 5 -15 -6 -31 -41 -66 -46
-45 -104 -108 -157 -171 -15 -18 -30 -27 -40 -23 -10 4 -13 1 -10 -8 3 -8 2
-20 -3 -28 -10 -18 -110 -134 -140 -163 -13 -12 -23 -25 -23 -29 0 -4 -15 -24
-34 -45 -18 -20 -36 -43 -40 -51 -5 -11 -7 -11 -12 -1 -10 21 -25 13 -19 -10
4 -16 -4 -33 -25 -57 -16 -18 -30 -37 -30 -42 0 -4 -6 -14 -12 -21 -19 -20
-93 -119 -114 -153 -10 -16 -21 -32 -24 -35 -3 -3 -23 -28 -43 -57 -22 -30
-43 -50 -51 -47 -7 3 -19 -3 -27 -13 -13 -16 -12 -17 4 -4 37 29 28 -2 -21
-74 -29 -42 -52 -80 -52 -85 0 -4 -3 -10 -7 -12 -12 -5 -53 -66 -53 -77 0 -6
-11 -22 -25 -37 -14 -15 -25 -32 -25 -39 0 -7 -9 -20 -19 -29 -11 -10 -31 -41
-44 -70 -14 -28 -32 -57 -40 -65 -9 -7 -13 -20 -10 -28 5 -12 3 -14 -7 -8 -9
6 -11 4 -5 -5 5 -8 2 -17 -6 -24 -8 -6 -29 -41 -47 -78 -18 -38 -34 -68 -35
-68 -2 0 -3 9 -4 20 -1 11 1 19 5 16 4 -2 8 7 8 21 2 23 1 23 -17 7 -10 -9
-16 -21 -13 -26 3 -5 0 -16 -8 -25 -7 -9 -8 -14 -2 -10 13 8 29 -23 17 -32
-26 -19 -72 -101 -66 -117 4 -11 2 -15 -4 -11 -5 3 -15 -4 -20 -16 -48 -105
-47 -103 -51 -79 -2 12 -8 22 -14 22 -9 0 -7 -19 8 -67 5 -17 5 -17 -10 1 -8
10 -13 23 -9 29 3 6 1 7 -5 3 -9 -5 -8 -14 2 -34 13 -26 11 -56 -3 -48 -4 3
-7 -4 -8 -14 -1 -10 -13 -35 -26 -57 -13 -21 -28 -49 -32 -63 -4 -14 -21 -53
-36 -88 -16 -34 -29 -65 -29 -68 0 -3 -7 -12 -15 -20 -8 -9 -15 -27 -15 -40 0
-17 -4 -23 -12 -18 -8 5 -9 0 -6 -14 4 -12 2 -20 -3 -16 -12 7 -11 -1 5 -41
10 -23 20 -33 29 -29 8 3 17 -2 20 -10 4 -10 1 -13 -9 -9 -19 7 -17 -3 11 -62
24 -51 33 -57 15 -11 -7 20 -5 35 8 64 9 20 19 39 22 42 3 3 12 24 19 47 8 23
18 40 23 37 5 -3 6 6 2 22 -5 18 -3 25 4 20 6 -3 13 6 17 24 4 17 11 28 16 24
5 -3 9 5 9 18 0 13 14 55 30 93 17 39 30 61 29 50 -2 -35 1 -46 11 -40 6 4 8
21 5 38 -4 22 1 45 15 72 11 21 20 46 20 55 1 12 3 12 11 -3 5 -9 7 -22 4 -27
-3 -6 -1 -10 4 -10 20 0 11 -20 -13 -29 -23 -9 -37 -30 -35 -54 0 -7 5 -1 10
12 5 13 11 22 14 20 5 -6 -29 -108 -50 -144 l-16 -30 6 45 6 45 -16 -30 c-9
-16 -17 -51 -18 -77 0 -26 -4 -45 -9 -42 -4 3 -8 -7 -9 -23 0 -15 -3 -22 -6
-15 -10 25 -24 12 -18 -17 3 -16 2 -38 -4 -48 -13 -23 -49 -108 -66 -155 -12
-32 -11 -40 7 -77 11 -23 25 -38 31 -34 7 4 8 0 3 -12 -6 -16 12 -75 24 -75 9
0 41 62 35 68 -3 3 -12 -3 -20 -14 -19 -25 -19 -12 0 32 8 20 19 33 25 29 13
-8 13 -72 0 -80 -5 -3 -6 -13 -3 -22 4 -10 2 -14 -4 -10 -25 16 -19 -43 9 -84
15 -23 28 -48 28 -55 0 -7 9 -20 21 -28 12 -8 19 -20 16 -28 -5 -15 32 -88 45
-88 5 0 7 4 3 9 -3 5 -1 12 4 15 16 11 22 -11 6 -24 -17 -14 -21 -35 -5 -25 6
3 10 -1 10 -9 0 -8 6 -21 13 -28 7 -7 14 -16 15 -20 7 -28 37 -76 44 -72 5 3
7 1 6 -4 -2 -5 28 -62 66 -126 49 -82 72 -113 78 -104 7 10 8 9 6 -4 -4 -20
22 -62 139 -231 133 -191 145 -207 156 -200 6 3 7 1 4 -4 -7 -12 257 -360 313
-413 3 -3 30 -34 60 -70 68 -81 194 -223 280 -315 160 -171 548 -548 675 -656
22 -18 76 -65 120 -104 196 -173 511 -425 521 -417 4 4 4 1 0 -5 -9 -16 -217
147 -555 436 -173 148 -302 270 -571 540 -442 443 -788 862 -1110 1346 -420
630 -731 1315 -885 1950 -55 226 -61 260 -46 251 6 -4 11 -3 11 3 0 5 11 22
25 37 14 15 25 31 25 36 0 5 25 53 55 105 30 53 55 98 55 100 0 2 5 9 10 16 6
7 36 55 67 107 30 52 58 97 62 100 4 3 10 12 14 20 15 35 196 307 239 360 15
19 28 39 28 45 0 5 18 30 40 55 22 25 40 48 40 52 0 4 6 13 13 20 7 7 50 65
97 128 46 63 94 125 107 137 13 12 23 25 23 28 0 7 112 146 140 175 8 9 33 38
55 65 22 27 52 62 68 77 15 15 27 30 27 33 0 3 10 16 23 29 12 12 47 51 77 85
75 85 123 135 269 284 69 70 120 127 114 127 -12 0 -343 -333 -343 -345 0 -2
-19 -23 -43 -47 -24 -24 -81 -88 -127 -143 -46 -55 -89 -104 -95 -110 -6 -5
-36 -41 -66 -80 -29 -38 -56 -72 -59 -75 -3 -3 -25 -30 -50 -60 -25 -30 -51
-62 -58 -70 -6 -8 -29 -38 -50 -67 -20 -28 -63 -86 -94 -127 -32 -42 -58 -78
-58 -81 0 -4 -13 -20 -30 -38 -16 -18 -30 -36 -30 -42 0 -5 -18 -34 -40 -63
-22 -29 -52 -71 -67 -95 -30 -45 -40 -59 -60 -82 -7 -7 -13 -16 -13 -19 0 -4
-20 -37 -44 -74 -79 -122 -113 -177 -126 -202 -7 -13 -19 -31 -27 -38 -7 -7
-13 -20 -13 -28 0 -8 -3 -14 -7 -14 -5 0 -17 -19 -28 -43 -11 -23 -22 -44 -26
-47 -3 -3 -28 -44 -54 -92 -27 -47 -53 -84 -57 -82 -4 3 -6 -1 -3 -8 7 -19
-12 -45 -23 -33 -12 12 -39 198 -47 323 -4 52 -9 106 -12 120 -11 53 -7 529 5
642 40 377 124 697 264 1005 238 524 594 952 1090 1311 56 41 109 72 116 69 7
-2 11 -1 8 4 -13 20 342 224 371 215 13 -4 14 -3 5 3 -21 16 287 161 310 147
6 -4 8 -2 4 4 -13 21 338 144 664 233 406 110 860 182 1300 208 175 10 844 5
1030 -8z m494 -147 c9 -3 16 -9 16 -13 0 -11 -98 -43 -109 -36 -7 4 -8 -1 -4
-11 5 -13 3 -16 -10 -11 -8 3 -17 3 -19 -1 -8 -18 -77 -43 -104 -37 -21 4 -23
3 -10 -3 24 -11 5 -25 -20 -15 -13 5 -15 3 -9 -7 6 -10 -2 -11 -41 -7 -44 6
-46 5 -22 -6 l26 -12 -36 -17 c-146 -69 -214 -96 -228 -91 -13 5 -13 8 -2 15
9 7 8 8 -5 4 -10 -3 -26 -6 -35 -7 -9 0 -2 -5 16 -10 31 -9 45 -29 20 -29 -14
0 -239 -112 -393 -196 -55 -29 -109 -58 -120 -64 -11 -6 -36 -20 -55 -31 -19
-12 -53 -31 -75 -42 -22 -12 -46 -28 -53 -34 -7 -7 -18 -13 -23 -13 -5 0 -31
-15 -57 -32 -69 -47 -84 -57 -112 -70 -14 -7 -59 -36 -100 -64 -75 -50 -76
-50 -110 -36 -19 8 -29 17 -22 19 7 3 24 -2 37 -11 14 -9 25 -12 25 -7 0 5 15
18 33 30 17 11 27 21 21 21 -6 0 -23 -9 -37 -20 -14 -11 -32 -17 -41 -14 -37
14 35 53 89 48 36 -2 37 -2 20 14 -13 13 -19 14 -22 5 -5 -15 -23 -17 -23 -4
0 5 10 13 22 17 13 4 35 16 49 27 16 11 32 16 40 12 7 -5 10 -4 5 3 -3 6 6 17
21 25 16 7 66 37 112 66 46 29 89 53 95 54 6 1 17 8 24 15 7 6 20 12 28 12 8
0 14 3 14 8 0 4 17 15 38 25 20 10 57 29 81 43 24 13 46 22 49 19 3 -3 11 4
19 15 8 11 20 20 27 20 8 0 19 7 26 15 6 8 15 14 18 13 7 -2 23 6 149 73 40
22 79 39 88 39 9 0 13 5 10 10 -3 6 3 10 14 10 12 0 21 4 21 9 0 14 93 45 144
47 27 2 53 7 58 12 7 7 -3 7 -28 1 -50 -11 -54 -11 -54 1 0 6 6 10 13 10 8 0
56 21 108 46 52 25 108 51 124 59 17 7 41 19 54 25 16 8 21 9 17 1 -13 -20 4
-12 31 15 21 21 32 25 59 20 18 -4 35 -2 38 3 4 5 -3 7 -16 3 -15 -4 -19 -2
-14 7 5 8 19 10 36 6 16 -3 31 -2 35 4 7 12 17 14 39 5z m386 -25 c0 -7 -102
-59 -116 -59 -5 0 -2 5 6 10 26 17 -11 12 -40 -6 l-25 -15 25 5 c21 5 21 4 -5
-8 -16 -8 -33 -12 -37 -10 -4 3 -25 -6 -46 -20 -25 -16 -48 -23 -63 -20 -18 4
-20 3 -10 -4 11 -8 10 -11 -5 -14 -10 -2 -25 3 -32 12 -11 13 -12 12 -7 -6 5
-20 2 -21 -40 -18 -25 1 -45 -2 -45 -7 0 -6 5 -7 10 -4 6 3 15 3 21 0 5 -4 -9
-16 -33 -27 -24 -11 -59 -28 -78 -37 -21 -11 -54 -17 -84 -16 -30 2 -43 -1
-35 -6 8 -5 23 -9 34 -9 16 0 17 -2 6 -9 -8 -5 -21 -7 -29 -3 -10 3 -13 1 -8
-6 5 -8 1 -10 -10 -5 -12 4 -15 3 -10 -6 4 -6 4 -11 -1 -10 -4 1 -15 -1 -23
-5 -9 -3 -33 0 -55 8 -27 10 -33 15 -19 15 12 1 27 8 34 16 7 8 18 15 24 15 6
0 36 12 66 26 33 16 77 27 108 29 30 1 59 8 65 15 10 10 6 11 -15 6 -14 -3
-33 -9 -42 -12 -9 -3 -16 -2 -16 4 0 5 20 15 45 22 25 7 45 16 45 21 0 5 7 6
15 3 8 -4 15 -2 15 4 0 6 10 8 23 5 12 -3 19 -2 15 2 -12 12 11 35 29 28 8 -3
18 0 23 6 4 7 29 14 56 15 31 2 62 11 84 25 19 13 26 20 15 16 -45 -16 -49
-15 -20 1 61 36 149 62 168 50 9 -6 17 -14 17 -17z m2330 -584 c132 -52 273
-109 313 -126 258 -112 350 -155 586 -270 145 -71 262 -132 259 -134 -2 -2
-78 33 -169 78 -212 106 -372 182 -534 252 -71 31 -148 65 -170 75 -51 23
-244 99 -410 162 -71 27 -131 51 -134 53 -15 15 44 -5 259 -90z m-3571 16 c9
-6 10 -10 2 -16 -7 -4 -19 -1 -27 6 -8 6 -18 9 -21 5 -4 -4 -2 -11 6 -15 10
-6 8 -10 -6 -16 -10 -4 -24 -9 -30 -11 -7 -1 -19 -9 -28 -17 -8 -9 -36 -26
-63 -39 -26 -13 -50 -27 -54 -32 -4 -6 -17 -5 -33 2 -35 16 -40 15 -20 -5 16
-15 15 -18 -7 -34 -12 -10 -37 -21 -55 -25 -18 -3 -31 -11 -30 -18 1 -6 -10
-10 -28 -9 -20 2 -26 0 -16 -6 11 -7 10 -11 -7 -20 -16 -9 -24 -8 -36 5 -15
14 -18 14 -33 -2 -16 -16 -16 -16 5 -10 25 8 31 -11 6 -21 -9 -3 -27 -17 -40
-29 -12 -13 -30 -24 -39 -24 -9 0 -13 -5 -10 -10 4 -7 -5 -9 -26 -5 -29 5 -31
4 -19 -10 7 -9 9 -15 4 -13 -5 2 -25 -9 -45 -25 -20 -15 -39 -27 -43 -27 -4 0
-27 -14 -52 -30 -37 -26 -47 -29 -65 -20 -11 7 -24 9 -27 5 -3 -3 4 -8 16 -12
12 -3 22 -9 22 -15 0 -10 -38 -7 -57 5 -7 5 -13 5 -13 0 0 -4 -13 -14 -30 -21
-16 -8 -30 -18 -30 -23 0 -8 48 9 60 21 3 3 13 6 23 6 17 2 17 1 1 -17 -11
-12 -24 -17 -37 -13 -13 4 -17 2 -13 -5 4 -6 3 -11 -2 -11 -5 0 -38 -22 -72
-49 -36 -28 -70 -47 -80 -44 -9 2 -22 -3 -29 -11 -8 -9 -10 -16 -5 -16 4 0
-19 -20 -52 -44 -56 -42 -60 -44 -78 -28 -18 16 -18 16 -7 -5 9 -19 7 -24 -16
-43 -15 -11 -33 -18 -40 -15 -49 20 -49 20 -31 -1 12 -14 13 -22 4 -30 -13
-12 -36 -7 -36 8 0 6 7 7 16 4 8 -3 12 -2 9 4 -8 12 -16 12 -35 0 -13 -8 -12
-11 5 -24 18 -14 19 -15 2 -16 -10 0 -16 -4 -12 -10 3 -5 -7 -5 -25 1 -16 6
-28 15 -25 19 13 22 136 100 147 94 7 -5 4 -10 -11 -16 -21 -7 -21 -28 0 -28
6 0 8 4 4 9 -3 5 4 13 15 16 17 5 19 9 9 21 -10 12 -9 18 3 30 14 14 17 14 32
-1 9 -10 20 -15 23 -11 4 3 -2 12 -12 20 -18 13 -18 14 3 20 12 4 22 12 22 17
0 5 6 9 14 9 8 0 17 6 20 13 3 8 9 6 20 -7 9 -11 16 -15 16 -9 0 7 -5 15 -10
18 -6 4 -8 11 -4 16 3 5 10 7 15 3 10 -6 70 14 79 27 3 4 20 15 39 26 19 10
36 24 37 31 1 7 0 8 -3 2 -2 -5 -9 -10 -15 -10 -5 0 -28 -13 -51 -28 -45 -31
-81 -47 -73 -33 3 5 32 26 63 47 32 21 67 46 77 56 11 10 26 18 33 18 7 0 13
5 13 10 0 6 5 10 11 10 6 0 38 18 70 40 32 22 63 40 68 40 5 0 11 6 14 13 3 9
9 9 27 -1 12 -7 24 -11 27 -8 3 3 -2 8 -11 12 -20 7 -21 24 -2 24 7 0 19 7 26
15 7 9 21 13 31 10 14 -5 17 -2 13 9 -7 17 -6 18 48 21 20 1 43 9 52 18 24 24
19 30 -9 11 -14 -9 -28 -14 -31 -11 -5 5 99 77 112 77 3 0 2 -5 -2 -11 -4 -7
-1 -10 7 -7 8 3 13 11 11 18 -2 8 3 10 12 7 9 -4 15 -3 15 1 -3 19 2 25 11 12
8 -13 10 -13 10 2 0 15 4 16 26 8 35 -14 41 -12 18 5 -22 17 -12 20 16 5 11
-6 21 -6 25 -1 3 5 -4 12 -15 16 -11 4 -18 10 -15 15 3 5 13 6 23 3 9 -3 14
-2 10 2 -10 11 29 38 42 30 6 -3 10 -1 10 4 0 15 27 14 32 0 3 -8 10 -8 26 2
23 14 29 29 12 29 -5 0 -10 -4 -10 -10 0 -5 -7 -10 -15 -10 -8 0 -15 4 -15 9
0 11 48 24 60 16 5 -3 12 0 16 6 4 8 3 9 -4 5 -7 -4 -12 -2 -12 4 0 8 10 10
28 6 21 -5 24 -4 12 4 -10 8 -11 13 -4 16 6 3 20 11 30 19 21 16 72 19 93 6z
m-910 -345 c25 -14 24 -16 -28 -44 -17 -9 -28 -9 -35 -2 -5 5 -15 10 -20 10
-6 0 -2 -7 8 -15 11 -8 18 -16 15 -18 -2 -2 -35 -23 -72 -46 -37 -24 -86 -59
-109 -77 -23 -17 -47 -30 -55 -27 -8 3 -13 0 -11 -8 2 -7 -7 -18 -19 -24 -13
-5 -23 -13 -23 -17 0 -5 -7 -8 -15 -8 -8 0 -15 -4 -15 -8 0 -4 -15 -16 -32
-27 -18 -10 -55 -37 -81 -59 -42 -35 -51 -38 -68 -28 -10 7 -19 8 -19 3 0 -5
6 -11 13 -14 13 -4 -26 -41 -91 -84 -20 -14 -39 -28 -42 -32 -3 -3 -34 -28
-70 -56 -36 -27 -70 -54 -76 -60 -6 -5 -34 -28 -62 -50 -29 -22 -69 -55 -89
-73 -23 -20 -45 -31 -56 -28 -13 3 -17 0 -13 -10 3 -8 -6 -24 -21 -37 -66 -55
-212 -183 -257 -224 -38 -35 -51 -42 -58 -31 -7 9 -8 7 -4 -8 5 -15 0 -24 -19
-34 -15 -8 -51 -41 -82 -73 -43 -47 -57 -57 -65 -46 -7 10 -8 8 -3 -8 7 -24
-9 -32 -19 -10 -3 6 -3 2 -1 -9 6 -22 -12 -36 -45 -38 -8 -1 -14 -9 -13 -20 1
-11 -4 -24 -11 -30 -59 -54 -69 -60 -63 -43 4 11 3 16 -4 12 -6 -4 -8 -13 -5
-21 5 -12 -33 -52 -168 -180 -6 -6 -22 -26 -36 -44 -46 -61 -59 -72 -71 -64
-9 5 -10 2 -6 -10 6 -14 3 -17 -9 -12 -11 4 -15 2 -11 -8 3 -8 -5 -23 -17 -35
-26 -24 -45 -29 -22 -5 9 8 16 21 16 27 0 7 -4 6 -10 -3 -9 -13 -11 -13 -19
-1 -9 14 7 43 20 36 3 -2 13 12 23 30 11 19 23 32 29 28 6 -4 8 0 4 11 -4 10
-3 15 3 11 6 -3 10 -2 10 4 0 6 13 9 30 7 26 -3 28 -1 19 16 -11 20 -2 33 79
117 17 19 32 38 32 43 0 5 5 6 10 3 8 -5 7 -12 -2 -23 -11 -14 -9 -14 8 1 11
9 23 14 26 11 4 -3 9 4 13 16 5 14 12 20 23 16 14 -5 13 -3 -2 8 -10 8 -15 19
-11 25 9 15 28 14 19 -1 -4 -8 -3 -10 2 -5 5 5 9 14 9 20 1 7 7 11 14 9 7 -1
10 2 7 7 -7 10 31 61 45 61 6 0 7 -5 3 -12 -4 -7 -3 -8 4 -4 6 4 8 14 5 23 -5
13 -2 15 11 10 9 -4 15 -3 12 1 -8 14 25 54 40 48 8 -3 13 0 11 7 -1 7 6 11
15 11 10 -1 15 2 12 7 -6 10 32 49 165 169 52 47 109 99 127 115 38 34 88 77
124 106 14 11 36 30 50 43 39 34 50 39 65 26 9 -8 15 -8 15 -2 0 6 -6 12 -12
15 -9 3 -6 11 9 26 12 11 24 21 27 21 3 0 20 13 38 29 78 69 116 99 162 132
27 19 61 44 74 57 14 12 29 22 35 22 5 0 17 10 27 23 10 13 39 36 64 52 25 16
46 33 46 37 0 4 5 8 11 8 6 0 28 14 49 30 21 17 43 30 48 30 6 0 15 6 19 13 4
7 49 42 98 77 50 35 92 67 95 70 13 16 74 39 80 31 3 -6 11 -6 20 -1 13 8 12
10 -2 10 -10 0 -18 5 -18 10 0 9 15 14 33 11 5 -1 6 3 3 8 -3 5 8 14 24 21 16
7 35 18 41 26 14 17 17 17 48 0z m-355 -335 c18 -19 15 -41 -5 -41 -5 0 -15
-5 -22 -10 -62 -54 -137 -99 -153 -94 -16 5 -17 4 -4 -5 13 -10 13 -12 0 -21
-31 -18 -243 -181 -364 -278 -57 -46 -81 -61 -89 -53 -6 6 -15 11 -21 11 -5 0
-1 -6 9 -14 18 -13 18 -15 -11 -39 -16 -14 -30 -21 -32 -16 -7 19 -23 8 -17
-11 5 -14 2 -18 -7 -15 -8 3 -13 18 -12 33 2 35 1 34 24 22 16 -9 18 -8 14 5
-4 8 -1 15 6 15 6 0 8 5 5 10 -3 6 -3 10 2 10 4 0 25 16 45 35 25 24 42 33 55
29 13 -4 14 -3 5 3 -10 7 6 24 60 65 40 30 88 69 107 86 20 17 41 28 49 24 10
-3 13 -1 9 5 -10 16 157 145 177 137 11 -4 15 -2 11 7 -4 13 73 79 92 79 5 0
14 9 21 20 15 25 24 25 46 1z m-126 -195 c23 -12 21 -14 -62 -71 -47 -32 -104
-75 -126 -97 -23 -21 -53 -46 -68 -55 -15 -10 -50 -37 -78 -60 -50 -42 -72
-54 -58 -32 4 7 1 10 -7 7 -8 -3 -13 -11 -11 -18 2 -7 -5 -21 -14 -31 -13 -15
-20 -16 -31 -8 -7 7 -17 9 -20 5 -4 -4 -1 -11 7 -16 8 -5 12 -11 10 -13 -3 -2
-20 -14 -38 -27 -31 -21 -35 -21 -50 -6 -10 9 -12 16 -5 16 7 0 15 -5 18 -10
4 -6 11 -8 16 -5 11 7 12 26 2 24 -23 -4 -19 5 19 39 24 20 45 40 46 45 2 4
13 7 23 7 12 0 17 5 14 10 -4 7 2 9 19 4 16 -4 26 -2 26 5 0 6 -4 11 -10 11
-21 0 -9 16 33 42 23 15 59 43 79 63 20 19 41 35 47 35 6 0 11 5 11 10 0 6 5
10 10 10 6 0 21 10 33 23 24 24 129 106 137 106 3 0 15 -6 28 -13z m6909 -118
c503 -312 946 -632 1363 -982 52 -44 97 -81 99 -83 2 -2 2 -5 0 -8 -3 -2 -18
8 -34 24 -17 15 -93 78 -170 140 -77 62 -153 125 -170 140 -16 14 -42 34 -56
43 -14 9 -32 23 -40 30 -8 7 -66 51 -129 97 -63 47 -151 111 -194 143 -91 69
-487 331 -658 438 -65 40 -118 74 -118 77 0 4 39 -17 107 -59z m-7860 -783
c13 -14 5 -25 -77 -105 -51 -50 -96 -90 -101 -90 -5 0 -8 -3 -7 -7 2 -5 -14
-25 -35 -46 -20 -21 -37 -43 -37 -49 0 -5 -9 -6 -20 -3 -11 4 -20 2 -20 -4 0
-6 5 -11 11 -11 7 0 -24 -35 -67 -79 -74 -74 -80 -77 -93 -59 -7 11 -10 22 -6
26 3 3 10 0 15 -8 8 -13 12 -12 24 5 9 11 16 23 16 28 0 12 -18 8 -23 -5 -2
-7 -7 -11 -10 -8 -3 3 15 27 39 53 24 27 44 53 44 59 0 6 11 1 25 -12 26 -25
36 -19 10 6 -12 13 -12 17 6 35 16 16 23 18 35 8 9 -7 14 -8 14 -1 0 6 -6 12
-12 15 -10 4 -10 7 0 18 11 12 14 12 23 -1 8 -12 9 -10 4 6 -5 21 16 40 39 35
5 -1 6 5 3 12 -4 11 0 13 14 10 20 -5 28 12 8 19 -6 2 6 18 25 36 20 18 36 28
36 22 0 -5 5 -10 11 -10 6 0 8 9 4 20 -4 12 -2 20 5 20 6 0 8 -4 5 -10 -3 -5
-1 -10 5 -10 7 0 9 7 6 17 -4 11 4 28 26 50 37 38 35 38 55 18z m1648 -186
c130 -14 197 -34 311 -90 187 -91 323 -247 389 -442 56 -168 8 -312 -120 -358
-34 -13 -44 -24 -26 -31 6 -1 38 -30 73 -64 35 -33 124 -116 198 -184 256
-234 420 -389 420 -396 0 -2 -82 -4 -182 -4 l-183 0 -70 68 c-38 38 -180 173
-315 300 l-245 232 -152 2 c-84 1 -166 2 -183 3 -16 1 -30 0 -30 -2 0 -5 202
-456 236 -527 13 -27 21 -52 19 -57 -6 -9 -317 0 -327 9 -6 6 -319 686 -478
1037 -34 77 -78 173 -96 213 -19 41 -34 78 -34 83 0 6 -5 7 -12 3 -7 -5 -9 -2
-6 7 3 8 -15 58 -41 112 -26 55 -42 99 -36 101 19 8 799 -5 890 -15z m6317
-112 c86 -190 562 -1237 629 -1381 32 -71 59 -134 59 -140 0 -8 -46 -10 -154
-8 l-153 3 -48 102 c-26 56 -148 325 -272 597 -124 272 -269 593 -324 713 -54
120 -99 222 -99 228 0 6 57 9 154 8 l153 -1 55 -121z m-3335 76 c143 -6 153
-7 159 -27 4 -12 27 -64 51 -116 25 -52 45 -99 46 -103 1 -5 -179 -8 -400 -7
-222 0 -403 -1 -403 -4 0 -3 24 -58 54 -123 62 -136 88 -193 127 -280 l28 -63
113 -1 c62 -1 122 -2 133 -3 11 -1 138 -3 283 -4 l263 -2 50 -106 c27 -59 52
-118 55 -131 l7 -25 -392 8 -392 7 10 -24 c13 -34 43 -102 81 -184 61 -132
160 -355 160 -360 0 -3 -73 -5 -162 -5 l-163 1 -54 117 c-61 132 -424 931
-524 1152 -36 80 -79 174 -96 210 -17 36 -31 71 -31 79 0 12 63 13 423 8 232
-4 491 -10 574 -14z m6204 -653 c164 -360 332 -728 375 -818 42 -89 75 -165
72 -168 -3 -3 -71 -2 -150 2 l-145 7 -48 90 -49 91 -14 -52 c-11 -39 -26 -62
-62 -96 -41 -39 -55 -45 -119 -56 -137 -23 -286 15 -414 107 -26 18 -53 31
-60 27 -7 -4 -9 -4 -5 1 4 4 -28 46 -72 92 -118 122 -226 298 -303 493 -56
141 -75 309 -44 381 14 35 14 38 -8 55 -12 11 -83 76 -156 145 -104 98 -252
230 -298 266 -2 2 -2 5 0 7 6 6 253 -212 415 -366 l70 -68 30 31 c41 43 87 60
179 66 156 11 300 -43 447 -167 l38 -32 -46 99 c-112 240 -234 510 -234 517 0
3 69 5 152 4 l153 -3 296 -655z m-11494 518 c1 -17 -10 -38 -34 -64 -19 -22
-58 -66 -87 -99 -28 -33 -54 -62 -57 -65 -5 -4 -93 -112 -127 -155 -16 -21
-98 -120 -114 -139 -10 -11 -18 -23 -18 -27 0 -3 -13 -22 -30 -40 -16 -19 -32
-42 -36 -51 -3 -10 -9 -18 -13 -18 -5 0 -33 -34 -62 -76 -30 -42 -80 -113
-112 -158 -99 -139 -204 -300 -211 -323 -8 -25 -22 -30 -29 -10 -2 6 -8 8 -13
4 -5 -4 -2 -12 5 -16 11 -7 8 -17 -13 -47 -14 -21 -26 -43 -26 -49 0 -6 -11
-22 -25 -37 -14 -15 -25 -32 -25 -37 0 -6 -13 -29 -29 -53 -16 -24 -41 -69
-57 -102 -16 -32 -34 -61 -41 -63 -7 -3 -13 -13 -13 -22 0 -9 -6 -23 -12 -29
-13 -13 -14 -17 -17 -49 -1 -16 -3 -16 -11 -3 -8 12 -10 10 -10 -9 0 -13 -10
-39 -22 -59 l-21 -35 -19 23 c-10 12 -18 18 -18 12 0 -6 7 -17 15 -26 21 -21
19 -41 -7 -60 -13 -9 -17 -14 -10 -11 7 4 -1 -19 -18 -50 -17 -31 -28 -60 -25
-66 4 -5 -1 -9 -10 -9 -9 0 -13 -5 -9 -11 3 -6 3 -14 -2 -18 -10 -7 -49 -85
-59 -118 -3 -13 -10 -23 -15 -23 -4 0 -11 -11 -14 -25 -4 -15 -11 -23 -17 -19
-7 4 -9 -1 -4 -15 9 -28 -1 -27 -20 3 -15 22 -14 27 10 69 14 25 25 55 25 66
0 10 3 21 8 23 6 3 46 86 93 195 14 32 14 32 26 10 12 -21 13 -20 7 7 -5 20
-3 27 4 22 6 -3 14 -1 18 5 4 8 3 9 -4 5 -7 -4 -12 -1 -12 7 0 18 90 191 101
195 5 2 9 10 9 18 0 8 5 14 10 14 6 0 10 5 10 11 0 7 33 68 73 136 39 69 78
135 85 149 7 13 17 24 23 24 5 0 9 5 9 11 0 6 16 38 37 70 26 44 39 56 46 47
6 -9 7 -7 3 6 -5 13 10 44 47 100 30 45 61 92 71 106 9 14 32 45 51 70 19 25
38 51 42 59 6 14 181 252 206 281 7 8 34 42 60 75 121 154 151 190 159 188 4
-2 8 2 8 8 0 10 57 83 113 144 15 16 51 58 80 92 29 35 56 61 62 60 5 -2 11
-15 12 -29z m3883 -208 c214 -60 408 -227 556 -477 66 -111 97 -182 82 -188
-7 -3 -175 -1 -373 3 -198 5 -362 7 -365 5 -11 -9 69 -143 122 -205 46 -52 74
-75 132 -104 70 -34 79 -36 151 -32 70 3 80 6 101 31 15 17 24 41 24 61 0 18
2 35 5 37 2 3 59 -1 127 -8 68 -6 136 -12 152 -12 l29 -1 -5 -67 c-12 -168
-111 -249 -316 -261 -112 -6 -219 10 -326 49 -269 98 -501 363 -623 712 -34
99 -43 239 -18 303 35 93 120 156 233 174 83 13 226 4 312 -20z m2229 -29 c21
-6 49 -61 191 -373 92 -202 187 -397 211 -434 45 -70 117 -135 178 -160 19 -8
63 -15 98 -16 54 -2 66 1 89 22 34 33 45 63 45 128 0 79 -15 118 -225 576 -53
115 -99 221 -103 234 l-6 24 152 -4 c84 -3 156 -9 160 -14 8 -8 214 -459 365
-796 36 -81 93 -203 126 -270 33 -67 60 -124 60 -125 0 -5 -265 -3 -285 3 -13
3 -38 42 -75 115 l-55 109 -11 -54 c-27 -133 -102 -186 -264 -186 -264 0 -467
165 -622 505 -20 44 -55 120 -77 168 -23 49 -41 90 -41 92 0 2 -15 36 -34 77
-97 208 -166 364 -166 375 0 10 32 13 133 12 72 -1 143 -4 156 -8z m1751 -18
c240 -56 474 -272 629 -580 22 -46 41 -85 41 -89 0 -4 -171 -3 -381 1 l-381 7
18 -33 c66 -129 160 -236 243 -279 61 -31 148 -44 199 -30 56 15 82 44 82 92
0 45 -3 44 148 28 173 -19 162 -15 162 -64 0 -125 -68 -219 -185 -255 -92 -29
-260 -29 -371 -1 -262 65 -481 262 -635 569 -189 376 -128 615 165 650 85 11
177 5 266 -16z m1891 -26 c161 -45 302 -143 436 -305 90 -108 220 -327 210
-355 -3 -9 -98 -11 -376 -8 l-373 3 28 -53 c103 -205 287 -322 438 -279 47 13
67 37 71 89 1 17 4 34 7 36 6 6 288 -24 300 -31 13 -8 9 -76 -7 -130 -40 -137
-179 -204 -393 -191 -330 20 -597 214 -776 566 -71 139 -103 231 -116 335 -10
71 -9 93 4 139 30 103 91 160 206 192 69 19 260 14 341 -8z m-9861 -228 c0 -6
-10 -8 -22 -4 -17 5 -19 4 -9 -4 12 -8 10 -15 -13 -45 -27 -36 -46 -46 -46
-24 0 9 -3 9 -12 0 -10 -10 -10 -15 1 -21 10 -7 7 -15 -15 -40 -27 -30 -49
-36 -24 -6 8 9 8 15 2 15 -13 0 -26 -36 -18 -49 3 -4 -3 -19 -14 -32 -31 -38
-34 -42 -59 -79 -37 -53 -64 -81 -70 -71 -3 5 -13 2 -21 -7 -13 -14 -12 -15 3
-9 9 3 17 4 17 1 0 -8 -70 -106 -85 -119 -6 -5 -28 -39 -49 -75 -21 -36 -41
-67 -45 -70 -3 -3 -24 -31 -45 -63 -34 -49 -42 -56 -54 -44 -11 12 -10 20 8
53 12 21 34 54 49 73 14 19 31 44 38 55 10 16 12 17 13 5 0 -9 -10 -28 -21
-43 -12 -15 -19 -30 -15 -33 3 -4 7 -4 9 -2 1 2 12 19 25 37 16 23 20 37 14
48 -7 13 2 33 37 79 25 34 61 84 80 111 19 27 36 43 38 37 6 -18 33 -16 33 1
0 8 -3 16 -7 19 -5 2 -2 2 5 1 16 -4 16 13 0 18 -8 3 2 23 27 54 23 27 61 75
85 107 126 164 120 158 140 147 11 -6 20 -15 20 -21z m-104 -205 c-13 -9 -14
-14 -5 -20 7 -4 15 -2 17 4 2 7 8 12 13 12 5 0 2 -12 -8 -26 -9 -15 -19 -22
-21 -15 -2 6 -8 11 -14 11 -5 0 -7 -9 -3 -19 4 -12 -3 -29 -19 -48 -30 -35
-44 -26 -15 10 25 33 15 36 -11 5 -12 -15 -17 -31 -13 -47 5 -19 3 -23 -10
-18 -11 4 -14 2 -10 -9 7 -20 -98 -158 -109 -141 -4 6 -8 18 -8 26 0 14 78
123 93 129 4 2 7 8 7 13 0 10 68 106 104 147 13 15 22 19 25 11 2 -7 -4 -18
-13 -25z m-486 -544 c0 -5 -4 -10 -10 -10 -5 0 -10 -8 -10 -19 0 -10 -7 -24
-15 -31 -8 -7 -15 -18 -15 -24 1 -11 33 24 50 53 5 9 11 13 15 9 5 -5 -41 -84
-73 -123 -4 -5 -15 -25 -22 -42 -17 -37 -25 -41 -34 -17 -4 9 -9 14 -12 11 -3
-3 1 -15 8 -27 10 -18 10 -24 1 -27 -7 -3 -13 -9 -13 -14 0 -18 -62 -109 -71
-103 -6 3 0 21 11 40 12 19 17 34 11 34 -5 0 -13 -9 -16 -21 -4 -11 -9 -18
-12 -15 -3 3 7 31 23 62 15 31 30 51 32 46 2 -6 -2 -20 -8 -31 -6 -12 -7 -21
-2 -21 12 0 32 47 27 62 -3 7 5 30 18 50 12 20 40 67 62 103 36 60 55 79 55
55z m116 -314 c-18 -28 -39 -66 -46 -85 l-14 -34 -13 34 -12 34 4 -42 c2 -24
-1 -43 -6 -43 -5 0 -9 -6 -9 -14 0 -7 -7 -19 -15 -26 -9 -7 -14 -19 -11 -27 4
-9 1 -11 -6 -7 -8 5 -9 2 -5 -10 4 -9 3 -15 -1 -12 -10 6 -46 -33 -38 -41 3
-3 -3 -18 -14 -33 -11 -16 -20 -33 -20 -39 0 -6 -4 -11 -10 -11 -5 0 -10 5
-10 10 0 6 -4 10 -10 10 -5 0 -10 -8 -10 -18 0 -10 -11 -33 -25 -52 -27 -37
-32 -66 -12 -73 7 -2 8 -8 3 -13 -5 -5 -11 -4 -13 4 -6 17 -23 15 -23 -3 0 -8
4 -15 10 -15 5 0 7 -7 3 -17 -5 -14 -8 -12 -15 7 -9 24 18 110 35 110 4 0 7 7
7 15 0 8 4 15 9 15 5 0 12 16 15 35 4 19 11 35 16 35 5 0 11 8 13 18 3 12 5
11 6 -6 0 -13 5 -20 11 -17 5 3 8 24 6 46 -2 22 -1 37 3 34 3 -4 16 15 28 42
16 34 22 42 22 26 1 -13 6 -23 12 -23 7 0 9 13 5 38 -5 32 -4 34 5 12 l10 -25
16 29 c12 22 12 30 3 36 -10 6 -7 18 11 48 92 156 82 144 100 120 16 -20 15
-24 -15 -72z m-177 55 c10 -10 16 -23 11 -27 -4 -5 -23 -38 -42 -74 -36 -69
-68 -122 -79 -130 -3 -3 -14 -24 -24 -47 -11 -24 -22 -43 -26 -43 -4 0 -11
-10 -15 -22 -8 -23 -9 -30 -12 -55 -3 -19 -20 -16 -25 5 -2 9 -4 0 -3 -20 0
-26 -7 -45 -23 -62 -14 -14 -20 -30 -16 -37 5 -7 4 -10 -3 -5 -7 4 -16 -9 -23
-34 -8 -26 -15 -36 -20 -28 -4 7 -4 17 1 23 14 17 31 67 21 60 -18 -11 -19 11
-2 45 43 84 85 165 88 170 2 2 8 -2 12 -9 6 -8 11 -9 15 -3 3 6 2 13 -4 17 -5
3 -10 11 -10 16 0 6 5 7 12 3 6 -4 8 -3 5 3 -7 11 14 63 26 63 11 0 8 -25 -4
-37 -6 -6 -9 -17 -7 -24 3 -8 11 1 19 19 7 18 17 32 20 32 4 0 9 10 13 23 3
12 15 32 26 45 16 17 19 26 11 40 -8 14 -10 14 -11 2 0 -18 -50 -94 -56 -87
-5 5 34 82 64 124 10 15 23 38 26 51 9 27 11 27 35 3z m-329 -401 c0 -6 -10
-30 -22 -53 -12 -23 -23 -60 -24 -83 -1 -23 -7 -50 -13 -60 -11 -17 -12 -17
-8 6 3 14 1 34 -4 45 -8 18 -9 17 -5 -4 3 -15 -4 -37 -19 -59 -13 -19 -21 -40
-18 -45 4 -6 1 -7 -7 -2 -9 6 -12 4 -8 -6 16 -44 19 -59 8 -59 -6 0 -8 -5 -4
-12 4 -7 3 -8 -4 -4 -6 4 -9 14 -6 24 5 14 4 15 -5 2 -6 -8 -8 -27 -5 -42 4
-20 1 -28 -14 -32 -29 -9 -49 -37 -57 -76 l-6 -35 15 29 c9 15 16 35 16 42 0
8 5 14 11 14 6 0 8 -7 5 -16 -3 -9 -9 -28 -12 -42 -10 -46 -57 -141 -67 -135
-5 3 -13 -1 -18 -8 -4 -7 -11 -10 -15 -7 -8 8 14 32 39 41 9 3 17 11 17 17 0
14 -17 13 -23 -2 -2 -7 -8 -10 -12 -6 -4 4 0 21 9 39 9 18 16 37 16 43 0 6 16
42 35 80 20 38 33 71 31 74 -3 2 3 17 14 32 11 16 20 33 20 40 0 6 9 28 19 48
11 20 25 52 32 69 6 18 16 30 22 26 6 -4 8 2 5 15 -4 12 -2 20 2 17 5 -3 17
17 27 45 16 45 33 66 33 40z m13325 -860 c206 -441 389 -1003 429 -1320 3 -19
14 -105 25 -190 75 -567 37 -1082 -115 -1554 -336 -1042 -1169 -1820 -2379
-2224 -426 -143 -967 -250 -1475 -292 -212 -18 -679 -23 -950 -11 -712 32
-1301 123 -2090 323 -704 178 -1583 509 -2295 865 -204 102 -357 185 -351 190
3 3 33 -10 68 -30 104 -57 304 -157 315 -157 6 0 13 -4 15 -8 6 -16 139 -71
156 -66 12 4 13 3 4 -3 -12 -9 85 -60 198 -104 25 -9 68 -28 95 -42 96 -48
431 -185 611 -250 21 -8 91 -33 154 -56 184 -68 200 -72 223 -66 17 5 19 4 7
-4 -16 -11 -21 -8 58 -34 23 -8 42 -11 42 -6 0 5 5 9 11 9 5 0 8 -4 4 -9 -3
-5 12 -15 32 -21 21 -6 47 -15 58 -20 39 -16 133 -45 340 -105 50 -15 111 -33
137 -41 26 -8 60 -14 77 -14 16 0 33 -5 37 -11 4 -7 21 -9 43 -5 22 3 31 2 22
-3 -20 -13 76 -32 103 -21 12 5 15 9 8 9 -7 1 -11 5 -8 10 3 5 25 7 49 4 31
-3 38 -2 27 6 -13 9 -13 11 1 11 9 0 63 16 120 36 57 19 127 42 154 50 28 8
58 19 68 25 10 5 44 18 75 29 31 10 82 28 112 39 30 12 65 21 77 21 13 0 23 4
23 9 0 5 14 12 30 16 17 4 30 11 30 16 0 5 12 12 28 15 15 4 32 10 37 14 6 4
42 18 80 31 39 13 103 40 144 61 78 40 106 46 115 26 3 -7 3 -3 0 10 -4 18 -1
22 20 22 14 0 28 5 31 11 4 6 13 8 21 5 8 -3 11 0 7 10 -3 10 2 14 19 14 13 0
34 9 46 21 12 11 27 17 32 14 6 -3 10 -2 10 3 0 6 12 13 28 16 33 8 256 117
260 128 2 5 9 8 15 8 17 -1 177 81 201 103 11 9 25 17 32 17 19 0 84 32 146
73 58 38 78 45 78 27 0 -5 5 -10 11 -10 9 0 8 4 0 14 -9 10 0 20 41 47 73 48
126 71 113 49 -3 -5 -1 -10 5 -10 7 0 9 8 5 20 -4 12 -2 20 6 20 6 0 38 18 70
40 32 22 61 35 64 30 3 -6 1 -10 -5 -10 -6 0 -8 -4 -5 -10 7 -12 26 -14 24 -2
-6 39 65 98 105 87 17 -5 18 -4 6 4 -12 9 -11 11 7 11 16 0 21 4 17 15 -5 13
1 17 23 14 3 0 10 7 15 16 6 10 17 14 31 10 18 -5 19 -4 7 4 -13 9 -12 12 8
17 12 4 22 10 22 15 0 5 6 9 14 9 8 0 16 6 18 12 3 9 10 8 22 -5 15 -14 16
-20 5 -33 -7 -8 -20 -13 -30 -11 -12 3 -16 0 -12 -9 3 -8 -9 -19 -31 -28 -20
-8 -39 -22 -42 -30 -3 -8 -12 -12 -20 -9 -8 3 -14 1 -14 -4 0 -14 -63 -48 -84
-44 -10 1 -16 -1 -13 -6 10 -16 -6 -28 -105 -86 -76 -45 -104 -56 -125 -52
-19 4 -22 3 -10 -3 18 -7 18 -8 0 -23 -10 -9 -43 -29 -73 -45 -30 -16 -59 -35
-63 -41 -4 -7 -15 -13 -23 -13 -13 0 -46 -17 -109 -57 -38 -24 -87 -43 -96
-37 -5 3 -8 0 -7 -6 3 -12 -199 -118 -476 -250 -105 -50 -152 -68 -159 -61 -6
6 -16 11 -21 11 -6 0 -3 -6 8 -11 16 -10 11 -15 -45 -41 -35 -16 -82 -38 -105
-49 -23 -10 -44 -19 -48 -19 -7 0 -65 -26 -162 -72 -24 -12 -56 -18 -77 -17
-20 2 -36 0 -34 -4 5 -14 -44 -38 -66 -32 -14 4 -18 3 -9 -3 9 -6 0 -13 -30
-22 -24 -7 -47 -17 -52 -22 -6 -4 -17 -8 -26 -8 -9 0 -35 -9 -58 -20 -22 -11
-47 -20 -54 -20 -7 0 -22 -7 -32 -15 -11 -8 -29 -15 -40 -15 -12 -1 -39 -9
-61 -20 -22 -11 -47 -19 -56 -20 -9 0 -31 -7 -48 -16 -23 -12 -47 -15 -79 -10
-43 5 -45 4 -28 -9 16 -12 17 -15 4 -15 -9 0 -18 -6 -21 -12 -3 -10 -9 -10
-26 0 -18 10 -24 10 -36 -2 -13 -13 -9 -16 32 -21 27 -4 68 -13 93 -20 25 -8
65 -16 90 -20 43 -6 44 -5 25 10 -11 9 -15 14 -8 11 6 -4 31 1 55 9 24 9 63
23 88 31 25 9 54 19 65 24 19 8 103 39 218 80 26 9 50 20 54 24 3 3 14 6 23 6
9 0 37 11 61 23 54 29 162 67 190 67 11 0 18 4 15 9 -3 4 14 16 37 25 23 10
65 28 92 42 31 14 59 21 73 18 18 -5 21 -3 16 10 -4 10 -1 16 7 16 8 0 40 13
72 29 32 16 67 27 78 24 15 -4 18 -2 13 11 -3 9 -1 16 5 16 18 0 451 216 461
230 3 4 16 11 30 15 14 4 27 10 30 14 3 3 28 17 55 31 28 14 57 31 66 38 9 7
47 28 84 48 38 19 73 38 79 43 6 5 31 20 56 33 81 44 125 70 140 83 8 7 31 21
50 30 19 10 37 21 40 24 3 3 21 15 40 25 19 11 71 43 115 73 44 29 85 53 91
53 6 0 21 12 35 26 35 37 100 68 112 52 5 -8 6 -5 2 10 -5 16 -2 22 9 22 9 0
16 4 16 8 0 4 15 16 33 27 17 10 34 22 37 25 6 9 70 0 70 -9 0 -6 -16 -17 -98
-67 -19 -12 -38 -27 -42 -34 -4 -7 -15 -10 -23 -7 -10 4 -14 1 -11 -7 2 -6
-10 -20 -28 -30 -75 -40 -97 -53 -111 -67 -59 -57 -81 -69 -90 -46 -4 8 -6 7
-6 -3 -1 -9 -19 -27 -41 -40 -22 -14 -40 -28 -40 -32 0 -5 -9 -8 -20 -8 -11 0
-20 -4 -20 -9 0 -5 -13 -14 -30 -21 -16 -7 -30 -16 -30 -21 0 -4 -21 -18 -47
-31 -27 -13 -49 -26 -51 -30 -2 -5 -8 -8 -13 -8 -5 0 -38 -17 -72 -38 -110
-66 -122 -73 -139 -79 -10 -3 -18 -9 -18 -14 0 -5 -9 -9 -19 -9 -11 0 -21 -3
-23 -7 -2 -5 -25 -19 -53 -33 -27 -14 -54 -28 -60 -33 -5 -4 -29 -18 -52 -30
-112 -59 -148 -80 -151 -88 -2 -5 -10 -9 -17 -9 -8 0 -71 -29 -142 -64 -166
-82 -252 -122 -283 -131 -14 -4 -54 -23 -90 -41 -35 -19 -68 -34 -72 -34 -4 0
-42 -16 -85 -36 -99 -45 -110 -50 -155 -65 -21 -7 -38 -16 -38 -20 0 -4 -10
-9 -22 -12 -30 -6 -152 -50 -158 -57 -22 -22 -130 -47 -139 -32 -4 7 -12 8
-21 2 -13 -8 -12 -10 3 -10 32 0 17 -19 -20 -26 -21 -4 -46 -13 -55 -21 -9 -8
-32 -15 -52 -16 -19 0 -33 -4 -30 -8 7 -11 -59 -27 -92 -23 -19 2 -15 0 10 -8
33 -9 49 -8 95 7 31 10 61 22 66 26 6 4 33 13 60 20 28 6 67 20 87 30 21 11
45 19 56 19 10 0 22 4 28 9 5 4 30 14 57 21 26 7 47 16 47 20 0 4 12 11 26 14
14 4 49 18 77 31 28 14 57 25 64 25 8 0 31 9 51 19 33 18 112 53 182 83 78 33
356 163 413 193 26 14 52 23 58 20 5 -4 9 -2 9 3 0 5 42 30 93 56 50 25 128
67 172 91 44 25 97 53 118 62 20 9 37 20 37 25 0 4 6 8 13 8 7 0 22 8 33 18
11 10 32 22 46 25 15 4 33 14 42 22 8 8 17 15 20 15 3 0 69 38 147 85 78 47
146 85 151 85 4 0 8 5 8 10 0 6 7 10 15 10 8 0 15 4 15 8 0 4 19 18 43 30 46
24 79 44 87 52 3 3 21 17 40 30 19 13 37 27 40 31 7 9 74 43 81 42 3 -1 19 11
34 27 16 17 35 30 42 30 7 0 13 4 13 8 0 4 15 16 33 27 17 10 37 23 42 27 6 4
24 19 41 33 18 14 37 25 42 25 6 0 15 6 19 14 5 8 18 18 29 23 12 4 39 23 60
41 21 18 73 58 114 88 120 87 133 97 169 132 19 17 40 32 47 32 6 0 17 7 24
15 7 8 23 15 37 15 19 0 23 4 19 18 -5 14 5 27 37 50 24 17 58 45 76 61 18 17
39 31 46 31 7 0 16 6 18 13 4 9 8 8 17 -3 9 -13 10 -12 6 5 -7 25 61 86 74 65
5 -9 9 -9 14 -1 4 6 2 11 -3 11 -19 0 -11 14 21 39 24 19 32 21 38 11 7 -11
11 -11 24 -1 9 8 16 19 15 25 0 7 -2 6 -6 -1 -5 -13 -33 -18 -33 -7 0 8 102
104 111 104 4 0 13 -7 20 -16 11 -14 4 -24 -56 -80 -38 -35 -71 -64 -74 -64
-3 0 -23 -16 -43 -35 -20 -19 -39 -35 -42 -35 -3 0 -18 -12 -34 -27 -16 -16
-48 -44 -72 -63 -24 -19 -57 -49 -74 -65 -17 -17 -49 -43 -72 -58 -22 -15 -54
-40 -70 -55 -16 -16 -60 -52 -99 -81 -38 -28 -85 -64 -104 -78 -60 -46 -238
-178 -261 -193 -13 -8 -35 -24 -49 -36 -60 -48 -117 -80 -136 -77 -15 3 -16 2
-7 -5 11 -7 8 -14 -14 -31 -14 -11 -30 -21 -35 -21 -6 0 -43 -23 -194 -120
-16 -10 -34 -23 -40 -27 -5 -5 -25 -18 -42 -28 -18 -11 -33 -24 -33 -29 0 -5
-3 -6 -6 -3 -4 3 -18 -3 -32 -13 -13 -11 -29 -20 -33 -20 -5 0 -28 -13 -51
-30 -22 -16 -46 -30 -51 -30 -6 0 -18 -6 -26 -14 -9 -7 -41 -26 -71 -42 -30
-16 -57 -32 -60 -36 -3 -4 -33 -22 -67 -40 -34 -18 -124 -67 -200 -108 -76
-41 -157 -83 -181 -92 -24 -9 -49 -21 -55 -26 -25 -20 -165 -91 -229 -117 -38
-15 -68 -31 -68 -36 0 -5 -5 -9 -11 -9 -6 0 -59 -23 -117 -51 -59 -28 -118
-55 -132 -59 -37 -13 -133 -54 -150 -65 -16 -10 -70 -31 -155 -61 -27 -10 -73
-28 -101 -41 -28 -13 -56 -23 -62 -23 -7 0 -12 -4 -12 -10 0 -5 -13 -10 -29
-10 -16 0 -34 -7 -42 -16 -11 -14 -9 -15 25 -9 21 4 64 20 96 36 33 16 72 31
87 35 15 4 37 13 48 20 11 8 25 14 33 14 7 0 47 16 90 35 121 56 142 65 154
65 6 0 56 22 112 49 55 26 135 63 176 80 130 56 150 66 150 74 0 4 7 7 16 7 9
0 29 9 45 21 16 11 34 17 39 14 6 -4 18 2 28 13 9 11 37 27 62 37 25 9 47 20
50 24 3 4 37 23 75 42 103 52 159 82 165 88 5 6 44 28 115 65 22 12 42 24 43
29 2 4 9 7 15 7 7 0 57 28 112 62 55 33 119 72 142 85 22 13 47 30 53 38 7 8
18 15 24 15 6 0 23 10 37 23 24 21 45 34 139 84 25 13 50 31 56 39 6 8 14 14
18 14 4 0 34 19 68 43 33 23 75 50 92 61 17 10 58 38 91 63 32 25 72 51 87 59
15 8 28 18 28 22 0 4 13 16 30 25 16 10 35 24 43 31 7 7 27 21 45 30 18 9 32
21 32 26 0 6 7 10 15 10 9 0 18 7 21 15 4 8 11 15 18 15 6 0 25 13 43 28 17
15 46 38 64 52 18 14 38 31 45 38 7 6 16 12 20 12 4 0 14 7 23 15 39 38 96 75
107 71 7 -3 10 2 8 12 -2 11 9 27 30 42 62 45 149 114 185 147 34 31 36 31 56
15 19 -16 19 -16 6 1 -12 15 -8 22 34 63 33 33 50 43 55 34 5 -9 9 -9 14 -1 4
6 2 11 -3 11 -6 0 -11 5 -11 10 0 6 6 10 13 10 14 0 47 35 47 50 0 6 5 10 10
10 11 0 34 20 138 118 31 29 58 48 60 42 2 -5 8 -10 14 -10 5 0 7 8 4 18 -8
24 173 208 187 190 6 -9 7 -7 2 7 -5 15 8 33 58 80 35 33 72 73 82 88 10 16
24 26 32 23 8 -4 11 -1 7 5 -7 13 35 61 48 53 5 -3 7 -1 6 4 -2 5 6 18 18 28
23 22 217 246 247 286 15 20 24 25 33 17 9 -8 11 -6 8 8 -6 23 102 159 123
155 9 -2 12 1 8 8 -8 13 24 66 59 99 14 14 26 31 26 39 0 9 3 12 7 9 3 -4 17
10 31 31 14 20 35 48 48 62 12 14 46 59 74 100 97 141 145 212 177 262 17 28
40 59 49 69 19 21 37 51 53 86 7 15 16 20 26 17 8 -3 15 -2 15 4 0 6 -5 12
-11 14 -6 2 -2 14 10 30 12 14 21 31 21 37 0 6 4 11 9 11 10 0 25 -50 16 -58
-3 -3 -5 2 -5 12 0 21 -16 13 -31 -16 -9 -18 -8 -19 10 -13 16 5 20 3 15 -9
-3 -9 -10 -16 -15 -16 -5 0 -9 -5 -9 -10 0 -6 -15 -33 -33 -60 -26 -39 -36
-47 -46 -37 -9 9 -11 5 -9 -19 2 -30 -31 -90 -59 -107 -7 -4 -13 -14 -13 -21
0 -8 -6 -19 -14 -25 -8 -7 -24 -31 -36 -54 -12 -23 -31 -49 -41 -58 -10 -9
-19 -20 -19 -24 0 -7 -126 -184 -139 -195 -3 -3 -19 -24 -34 -47 -16 -23 -46
-61 -68 -85 -21 -24 -39 -46 -39 -51 0 -12 -56 -67 -69 -67 -7 0 -9 -5 -6 -10
9 -15 -35 -72 -51 -66 -7 3 -11 0 -9 -7 3 -7 -4 -23 -15 -37 -17 -21 -21 -23
-29 -10 -6 8 -13 11 -18 7 -4 -5 -1 -12 7 -17 14 -8 -6 -38 -90 -134 -94 -108
-124 -136 -142 -130 -10 3 -18 1 -18 -5 0 -6 5 -11 11 -11 5 0 7 -5 4 -11 -4
-6 -13 -8 -21 -5 -8 3 -11 0 -7 -10 6 -15 -41 -67 -51 -56 -3 3 -6 -5 -6 -18
0 -13 -2 -21 -5 -18 -6 6 -99 -84 -121 -118 -9 -13 -24 -26 -35 -29 -10 -4
-19 -13 -19 -20 0 -20 -21 -30 -31 -14 -4 7 -11 10 -16 6 -4 -5 -1 -12 7 -17
13 -8 10 -14 -12 -37 -16 -15 -28 -22 -28 -15 0 6 -5 12 -11 12 -5 0 -7 -5 -3
-11 8 -14 -248 -266 -283 -280 -13 -5 -23 -15 -23 -24 0 -8 -4 -15 -9 -15 -5
0 -30 -22 -57 -50 -32 -34 -54 -48 -65 -45 -10 3 -20 1 -24 -4 -4 -7 1 -8 12
-5 10 4 -1 -12 -24 -35 -23 -24 -47 -40 -52 -37 -5 3 -20 1 -33 -4 -21 -10
-20 -10 7 -5 29 6 28 4 -20 -40 -59 -53 -42 -39 -230 -190 -172 -137 -162
-129 -195 -156 -14 -12 -58 -44 -97 -72 -40 -28 -73 -54 -73 -59 0 -4 -6 -8
-13 -8 -8 0 -22 -9 -32 -20 -10 -11 -24 -20 -32 -20 -7 0 -13 -4 -13 -10 0 -5
-16 -17 -35 -26 -19 -9 -35 -20 -35 -25 0 -5 -12 -14 -26 -19 -21 -8 -86 -52
-104 -70 -13 -13 -79 -60 -85 -60 -7 0 -77 -51 -85 -62 -7 -9 -105 -65 -142
-81 -16 -6 -28 -17 -28 -24 0 -7 -6 -13 -13 -13 -7 0 -34 -14 -60 -30 -26 -17
-54 -30 -61 -30 -8 0 -16 -7 -20 -15 -3 -8 -12 -15 -20 -15 -8 0 -16 -3 -18
-7 -5 -11 -78 -60 -113 -75 -16 -7 -32 -15 -35 -19 -3 -3 -41 -25 -85 -49 -44
-23 -84 -46 -90 -50 -15 -11 -80 -48 -165 -92 -41 -22 -109 -57 -150 -79 -56
-29 -83 -38 -105 -34 -22 4 -25 3 -10 -4 17 -7 11 -13 -45 -42 -36 -19 -69
-35 -75 -38 -5 -2 -68 -31 -140 -66 -71 -34 -142 -65 -157 -69 -16 -3 -28 -11
-28 -16 0 -6 -6 -10 -13 -10 -8 0 -51 -18 -96 -40 -45 -22 -87 -40 -94 -40 -7
0 -17 -4 -22 -9 -6 -5 -28 -14 -50 -21 -22 -7 -60 -23 -85 -36 -25 -13 -54
-24 -65 -24 -12 0 -25 -4 -31 -9 -13 -13 -115 -51 -136 -51 -10 0 -18 -4 -18
-8 0 -5 -12 -13 -27 -19 -24 -9 -25 -11 -7 -12 11 -1 65 17 119 39 54 22 102
40 106 40 5 0 37 14 71 30 34 17 65 30 70 30 4 0 31 11 60 25 28 14 57 25 63
25 6 0 52 20 101 45 48 25 92 45 96 45 4 0 37 13 71 30 35 16 69 30 75 30 7 0
12 3 12 8 0 4 15 13 33 21 99 41 167 75 167 82 0 5 5 9 12 9 17 0 170 72 186
87 7 7 20 13 28 13 8 0 14 4 14 8 0 4 17 14 38 21 20 8 62 29 92 47 31 19 59
34 63 34 4 0 52 27 108 60 55 33 105 60 110 60 5 0 9 3 9 8 0 4 19 16 43 27
44 21 168 95 177 106 3 3 38 26 79 50 40 24 76 49 78 56 3 7 13 13 23 13 10 0
25 7 34 15 8 8 17 15 21 15 3 0 39 23 81 52 62 43 77 49 85 37 8 -10 9 -8 4 9
-4 15 -2 22 7 22 8 0 24 9 36 20 12 11 26 20 32 20 5 0 10 5 10 10 0 6 4 10
10 10 5 0 39 23 76 50 37 28 70 50 75 50 4 0 14 6 21 13 7 7 38 30 68 52 61
44 74 54 95 73 7 6 16 12 19 12 5 0 168 123 192 145 6 5 26 22 45 37 19 15 64
51 100 80 168 135 180 145 223 186 16 15 39 34 51 42 23 16 120 102 284 255
53 49 176 171 274 270 131 133 180 176 186 166 6 -9 11 -10 15 -2 4 6 2 11 -4
11 -19 0 -9 14 74 109 43 50 83 88 89 84 5 -3 7 -1 4 4 -4 6 7 26 24 44 18 19
39 45 47 58 9 13 18 19 20 12 2 -6 11 -11 19 -11 13 0 13 3 3 15 -7 9 -10 18
-6 22 3 3 6 1 6 -5 0 -7 5 -12 10 -12 6 0 8 11 4 25 -5 21 -3 24 12 18 12 -4
15 -3 10 6 -5 8 3 25 22 44 17 18 50 55 74 83 24 28 55 66 71 84 15 17 27 35
27 38 0 14 67 91 79 92 8 0 12 3 8 6 -7 7 55 100 97 148 14 16 26 32 26 35 0
3 10 17 23 31 24 27 57 75 207 300 101 153 153 235 180 286 9 16 25 43 37 60
21 30 63 107 160 294 57 110 80 143 94 134 4 -2 13 4 18 15 16 30 12 40 -4 11
-9 -15 -14 -19 -15 -10 0 13 -2 13 -11 0 -9 -12 -10 -12 -5 3 3 10 6 21 6 23
0 3 5 2 10 -1 6 -3 11 -1 11 4 5 40 30 101 40 96 5 -4 6 0 4 8 -6 14 89 207
107 218 6 4 7 17 3 30 -5 19 -4 21 5 9 9 -12 10 -9 5 13 -4 19 -2 26 5 22 5
-3 10 2 10 13 0 11 7 25 15 32 13 11 13 15 3 23 -9 6 -8 7 5 3 15 -5 17 -2 11
17 -3 12 -12 33 -19 46 l-12 24 -11 -33 c-10 -27 -9 -31 3 -26 8 3 15 1 15 -4
0 -6 -4 -10 -10 -10 -5 0 -12 -15 -15 -33 -4 -20 -13 -34 -21 -34 -18 0 -18 7
2 35 20 28 11 41 -12 18 -11 -12 -14 -26 -10 -49 3 -18 2 -45 -3 -62 -5 -16
-10 -24 -10 -17 -2 21 -41 -10 -41 -32 0 -15 -3 -17 -11 -9 -8 8 -4 22 14 49
14 22 28 56 31 76 4 21 13 44 21 52 8 8 15 19 15 24 0 5 7 15 15 22 21 18 19
35 -2 19 -16 -13 -17 -12 -4 3 7 10 17 15 22 12 14 -8 11 3 -17 64 -14 31 -30
68 -36 82 -7 20 -11 22 -19 10 -7 -11 -8 -9 -6 9 4 26 -29 104 -41 97 -4 -2
-7 6 -8 17 0 12 -4 31 -9 42 l-7 20 15 -20 c8 -11 49 -94 92 -185z m-313 -744
c16 -12 15 -18 -20 -87 -28 -54 -42 -73 -55 -71 -10 2 -20 -5 -24 -15 -4 -10
-11 -21 -16 -24 -5 -4 -5 -9 2 -13 6 -4 13 4 17 19 3 14 10 25 15 25 14 0 11
-15 -14 -59 -23 -39 -41 -47 -30 -13 4 15 3 15 -6 2 -6 -8 -8 -23 -5 -33 3
-10 1 -24 -6 -31 -6 -8 -20 -31 -30 -52 -18 -35 -19 -36 -13 -9 6 27 5 29 -10
17 -12 -10 -14 -20 -7 -37 6 -15 6 -27 0 -30 -5 -3 -23 -30 -40 -61 -18 -30
-35 -53 -37 -50 -6 5 13 46 48 105 16 26 17 36 8 45 -9 8 -11 7 -6 -6 3 -9 -2
-23 -13 -33 -10 -9 -24 -31 -31 -48 -7 -18 -18 -35 -23 -39 -8 -5 -8 -13 0
-25 12 -20 3 -36 -151 -270 -49 -76 -87 -122 -97 -122 -11 -1 -15 -6 -12 -16
3 -8 -6 -29 -20 -46 -14 -17 -26 -26 -26 -20 0 6 -5 11 -10 11 -6 0 -8 -10 -5
-23 4 -16 -1 -31 -19 -50 -14 -16 -26 -31 -26 -35 0 -4 -14 -22 -31 -40 -23
-26 -33 -31 -44 -22 -10 9 -15 6 -20 -10 -4 -12 -20 -34 -36 -51 -30 -30 -37
-49 -19 -49 6 0 10 4 10 9 0 6 11 22 25 37 14 15 25 31 25 36 0 5 5 6 11 3 8
-6 -27 -66 -51 -85 -4 -3 -32 -39 -62 -80 -31 -41 -75 -95 -97 -120 -22 -25
-41 -49 -42 -55 0 -5 -4 -1 -9 10 -8 18 -9 18 -9 -5 -2 -36 -62 -102 -87 -94
-14 4 -16 3 -5 -4 20 -14 3 -34 -22 -26 -18 5 -20 4 -10 -6 10 -10 6 -22 -19
-54 -18 -23 -33 -43 -35 -46 -2 -2 -8 2 -13 10 -5 8 -12 11 -17 7 -4 -5 -1
-12 7 -17 16 -10 11 -16 -65 -96 -22 -23 -52 -55 -66 -70 -15 -16 -35 -36 -45
-45 -11 -9 -34 -33 -51 -53 -18 -21 -33 -34 -33 -29 0 4 -10 -7 -21 -24 -12
-18 -27 -33 -35 -33 -8 0 -14 -4 -14 -9 0 -14 -71 -86 -97 -100 -13 -6 -23
-17 -23 -22 0 -10 -61 -71 -128 -130 -15 -12 -31 -18 -45 -15 -12 3 -16 3 -9
0 22 -10 14 -32 -10 -28 -13 2 -17 2 -10 -2 18 -9 15 -27 -4 -20 -12 4 -15 2
-10 -9 7 -19 -11 -20 -30 -1 -18 19 -18 30 2 22 8 -3 13 -2 10 3 -6 9 94 114
102 106 3 -3 10 5 16 17 6 12 31 37 56 56 25 19 46 41 48 48 3 14 15 18 41 15
7 -2 10 3 6 9 -3 6 3 21 14 33 11 12 46 50 77 84 31 35 61 60 67 56 5 -3 8 0
5 7 -2 7 18 33 45 59 27 25 57 55 66 65 9 11 30 34 46 51 17 18 53 58 80 90
28 32 69 79 93 104 23 25 42 49 42 53 0 13 18 9 23 -4 2 -7 3 -3 1 8 -2 12 6
32 19 46 12 14 30 35 40 47 15 19 21 21 35 10 14 -11 15 -11 5 0 -14 16 22 75
90 145 23 23 48 55 56 69 8 15 18 27 23 27 4 0 8 5 8 10 0 6 8 19 18 29 9 10
35 44 57 75 91 128 121 162 135 159 13 -4 13 -3 0 6 -19 13 -5 28 30 33 16 2
26 10 28 23 3 20 3 20 -12 1 -9 -11 -18 -17 -21 -14 -3 3 32 60 77 127 46 68
87 131 93 142 5 10 13 19 17 19 5 0 8 4 8 10 0 5 21 42 48 82 26 40 56 92 66
115 10 24 23 40 29 36 6 -4 8 0 4 10 -3 9 0 23 8 31 8 8 15 17 15 21 0 3 9 15
20 27 11 12 20 30 20 40 0 12 4 16 12 12 8 -5 9 -2 5 9 -4 10 -2 16 5 14 7 -1
15 9 18 23 9 41 43 100 57 100 19 0 16 -14 -7 -35 -11 -10 -20 -25 -20 -34 0
-10 10 -4 30 17 28 31 40 64 23 61 -26 -4 -32 2 -24 24 5 12 15 21 21 19 8 -2
10 3 7 13 -8 18 2 19 25 1z m-746 -1073 c-30 -58 -41 -67 -64 -54 -20 11 -22
9 -22 -16 0 -22 2 -25 10 -13 5 8 10 12 10 7 0 -10 -21 -46 -43 -71 -10 -12
-46 -57 -80 -101 -34 -44 -76 -94 -93 -112 -18 -18 -34 -38 -37 -45 -2 -7 -4
6 -5 28 -1 32 5 47 24 65 24 22 49 20 26 -3 -7 -7 -12 -16 -12 -22 0 -5 9 0
21 13 17 18 18 25 9 36 -12 15 -9 22 25 61 6 6 21 26 35 43 14 17 36 43 49 58
22 25 23 25 16 4 l-7 -23 22 22 c17 17 19 24 9 36 -8 10 -8 14 0 14 6 0 11 6
11 14 0 7 6 19 14 25 11 10 16 8 24 -6 6 -10 14 -14 18 -10 4 4 2 13 -4 19
-18 18 -14 27 8 21 14 -4 20 0 20 10 0 13 8 21 28 26 1 1 -4 -11 -12 -26z
m-369 -308 c14 -14 13 -18 -11 -40 -14 -13 -26 -28 -26 -32 -1 -11 -36 -53
-45 -53 -3 0 -3 10 0 23 7 21 6 21 -11 5 -14 -14 -15 -20 -5 -32 7 -9 8 -17 2
-20 -5 -3 -11 0 -14 6 -4 10 -7 11 -18 1 -9 -10 -10 -13 -1 -13 19 0 14 -19
-10 -44 -13 -12 -43 -47 -68 -76 -70 -82 -82 -93 -77 -67 2 6 -1 2 -7 -10 -10
-23 -26 -31 -26 -14 0 5 -3 17 -7 27 -5 13 -3 15 7 9 10 -6 12 -4 7 8 -5 14
-1 16 23 12 18 -3 30 -1 30 5 0 6 -4 8 -10 5 -14 -9 -12 19 2 33 17 17 29 15
22 -3 -4 -8 -2 -15 4 -15 15 0 24 32 11 41 -13 7 -4 29 12 29 6 0 8 -4 5 -8
-3 -5 1 -9 9 -9 11 0 12 4 4 13 -8 10 1 27 38 69 26 30 51 55 54 55 4 0 19 18
34 40 20 29 31 37 36 28 6 -10 11 -10 20 -1 9 9 9 16 -1 28 -16 20 -3 20 17 0z
m-311 -232 c-4 -9 -1 -21 6 -26 9 -6 7 -7 -6 -3 -22 7 -69 -31 -59 -47 3 -5
14 1 24 14 10 13 20 21 23 19 6 -7 -166 -191 -178 -190 -5 0 1 11 14 25 13 14
21 28 17 31 -10 11 -47 -39 -42 -57 3 -8 -9 -29 -29 -48 -30 -29 -34 -30 -40
-14 -6 15 -8 15 -16 3 -5 -8 -7 -25 -3 -37 3 -13 1 -23 -5 -23 -5 0 -20 -11
-33 -25 -28 -29 -44 -33 -31 -7 5 9 7 23 5 30 -3 7 4 12 16 12 13 0 18 5 15
13 -6 18 75 100 92 93 8 -3 11 0 8 8 -8 21 51 77 73 70 12 -4 14 -3 6 3 -14
10 -8 21 32 52 17 12 30 27 30 32 0 10 74 89 83 89 2 0 1 -8 -2 -17z m-277
-541 c-5 -2 -9 -10 -9 -17 0 -7 -11 -20 -25 -29 -13 -9 -34 -26 -45 -38 -16
-17 -23 -20 -29 -10 -6 10 -10 10 -21 -3 -10 -13 -9 -15 6 -15 14 0 8 -10 -25
-38 -24 -20 -62 -54 -85 -75 -22 -21 -42 -33 -44 -28 -2 6 -8 11 -14 11 -5 0
-6 -9 -3 -21 6 -18 5 -19 -14 -7 l-20 12 20 19 c11 10 27 16 35 13 12 -5 14
-1 8 16 -6 21 -5 22 11 8 17 -14 18 -13 13 8 -4 12 -5 22 -3 22 2 0 11 3 21 7
12 4 15 3 10 -5 -4 -7 -2 -12 3 -12 15 0 51 38 50 53 0 6 -5 2 -11 -10 -11
-22 -38 -32 -38 -14 0 4 44 49 97 99 86 81 98 89 109 74 7 -9 8 -18 3 -20z
m-279 -121 c0 -6 -5 -13 -11 -17 -8 -4 -7 -9 2 -15 12 -7 -42 -63 -151 -156
-14 -12 -45 -39 -69 -60 -28 -24 -42 -31 -38 -20 6 15 3 17 -16 11 -20 -6 -20
-4 7 25 17 17 38 31 48 31 10 0 17 4 16 9 -4 11 45 64 106 116 26 22 57 50 69
62 24 24 37 28 37 14z m-8410 -231 c34 -25 72 -52 84 -60 11 -8 48 -35 81 -61
75 -57 406 -282 534 -362 253 -158 383 -237 551 -333 41 -23 100 -56 130 -74
30 -17 67 -36 83 -43 15 -6 27 -15 27 -19 0 -11 -22 0 -140 66 -258 145 -645
382 -865 530 -150 100 -375 260 -480 340 -134 103 -137 111 -5 16z m8063 -13
c-26 -23 -36 -27 -47 -18 -11 9 -16 9 -22 0 -4 -7 -2 -15 4 -17 14 -4 -35 -52
-54 -52 -8 0 -14 -4 -14 -8 0 -12 -79 -92 -91 -92 -6 0 -7 5 -4 10 3 6 2 10
-4 10 -5 0 -13 -4 -16 -10 -3 -5 -1 -10 4 -10 22 0 9 -16 -39 -47 -28 -19 -56
-30 -65 -27 -17 7 -21 24 -5 24 6 0 10 -5 10 -12 0 -9 3 -9 12 0 10 10 10 14
0 21 -9 5 4 21 45 51 32 24 61 48 65 54 4 6 9 4 14 -7 10 -27 25 -20 22 11 -2
21 2 28 18 30 12 2 27 13 33 25 7 12 39 43 72 69 50 40 63 46 78 36 17 -10 16
-13 -16 -41z m63 -155 c-15 -15 -18 -15 -26 -2 -9 13 -14 7 -11 -12 1 -11 -75
-83 -137 -131 -44 -33 -55 -38 -63 -26 -8 10 -9 9 -4 -7 4 -16 -3 -27 -32 -47
-21 -14 -51 -38 -68 -52 -16 -15 -48 -39 -69 -52 -22 -14 -51 -36 -65 -49 -17
-16 -38 -24 -61 -24 -27 0 -31 -3 -20 -10 12 -9 9 -15 -20 -40 -35 -30 -60
-38 -60 -20 0 5 8 14 18 20 14 8 12 9 -10 4 -40 -9 -34 1 17 32 25 14 45 30
45 35 0 5 4 9 10 9 5 0 18 6 27 14 10 8 38 31 63 50 25 20 50 41 57 46 7 6 16
10 21 10 5 0 25 15 45 33 19 17 77 64 128 102 51 39 111 87 134 108 45 39 60
45 69 25 3 -7 3 1 0 17 l-6 30 17 -23 c16 -22 16 -25 1 -40z m-472 -260 c21
11 21 11 2 -10 -13 -15 -26 -20 -42 -16 -23 6 -35 -11 -14 -18 6 -2 -13 -21
-42 -43 -29 -21 -57 -43 -63 -47 -64 -52 -115 -88 -124 -88 -17 0 -13 20 7 27
17 7 48 33 38 33 -11 0 -76 -43 -76 -50 0 -5 6 -11 13 -14 9 -5 9 -7 -1 -12
-7 -3 -18 -11 -25 -18 -7 -7 -23 -19 -37 -26 -13 -7 -29 -17 -34 -21 -22 -18
-113 -79 -171 -114 -33 -21 -62 -40 -65 -44 -3 -4 -25 -18 -49 -32 -25 -13
-56 -34 -69 -46 -14 -13 -29 -23 -33 -23 -5 0 -41 -21 -80 -47 -108 -69 -220
-125 -240 -120 -10 3 -24 -2 -31 -10 -7 -8 -21 -19 -33 -23 -16 -7 -16 -9 -3
-9 9 -1 24 6 33 15 9 9 19 13 23 9 4 -4 1 -10 -6 -12 -7 -3 -19 -11 -26 -19
-8 -8 -20 -14 -27 -14 -7 0 -20 -6 -28 -14 -9 -7 -68 -40 -131 -73 -63 -33
-147 -78 -187 -101 -40 -23 -77 -42 -83 -42 -5 0 -10 -4 -10 -10 0 -5 -9 -10
-20 -10 -11 0 -38 -11 -60 -25 -22 -14 -42 -25 -46 -25 -3 0 -42 -18 -85 -40
-44 -22 -85 -40 -92 -40 -7 0 -29 -11 -49 -25 -23 -16 -43 -22 -55 -18 -10 3
-15 2 -10 -2 7 -9 -103 -65 -128 -65 -7 0 -20 -6 -27 -13 -7 -7 -36 -22 -63
-32 -28 -10 -54 -22 -59 -27 -6 -4 -16 -8 -23 -8 -7 0 -48 -17 -91 -38 -84
-42 -152 -59 -153 -39 0 7 -5 3 -10 -8 -11 -22 -70 -55 -98 -55 -9 0 -36 -9
-59 -20 -22 -11 -48 -20 -57 -20 -8 0 -15 -4 -15 -10 0 -5 -7 -10 -15 -10 -20
0 -131 -37 -169 -57 -16 -8 -38 -16 -50 -18 -12 -2 -36 -8 -54 -14 -29 -9 -33
-8 -28 6 5 12 3 13 -6 6 -8 -7 -22 -7 -37 -2 -23 9 -24 10 -5 24 10 8 33 15
51 15 17 0 35 5 38 10 3 6 16 10 28 10 12 0 34 6 49 14 15 8 41 17 58 21 17 4
43 13 58 21 15 8 35 14 44 14 9 0 20 5 23 10 3 6 12 10 20 10 8 0 26 5 42 12
15 6 30 12 33 13 3 1 22 9 44 18 21 9 47 17 57 17 10 0 20 4 23 9 3 4 33 18
67 31 49 18 66 20 86 11 13 -6 29 -11 36 -10 7 0 -1 7 -18 14 l-30 13 45 21
c25 11 51 21 58 21 6 0 12 4 12 8 0 9 59 32 83 32 9 0 17 4 17 8 0 5 19 15 43
22 38 12 248 109 388 181 31 16 61 29 67 29 5 0 39 17 73 38 35 21 101 56 147
77 45 22 82 43 82 48 0 4 9 3 20 -3 15 -8 20 -8 18 1 -2 7 6 17 17 23 11 6 39
24 62 39 24 15 45 27 48 27 10 0 97 41 109 51 22 19 84 57 152 94 38 21 80 46
93 56 13 11 27 19 31 19 9 0 190 117 232 149 14 12 33 21 41 21 7 0 22 9 32
20 21 23 41 26 49 8 3 -7 4 -4 1 7 -4 16 16 34 108 95 61 41 134 92 162 112
27 21 54 38 58 38 5 0 15 7 24 15 16 16 38 11 27 -7 -5 -7 -2 -8 5 -3 9 5 10
10 2 18 -6 6 -11 15 -11 19 0 13 28 9 33 -4 2 -8 8 -9 13 -4 5 5 4 11 -3 13
-18 6 -16 23 2 23 8 0 15 5 15 11 0 5 5 7 10 4 6 -3 10 -2 10 2 0 15 54 42 64
33 5 -5 18 -5 30 2z m-1014 -493 c9 -6 11 -12 5 -15 -6 -2 -35 -21 -65 -40
-30 -20 -82 -51 -115 -69 -56 -29 -63 -31 -83 -17 -12 8 -22 10 -22 4 0 -5 8
-13 17 -17 16 -6 15 -8 -7 -25 -31 -24 -44 -25 -36 -4 4 11 1 14 -12 12 -11
-2 -16 -11 -14 -26 2 -12 -2 -22 -9 -22 -7 0 -21 -8 -32 -17 -15 -13 -21 -15
-24 -5 -5 14 -33 16 -33 2 0 -5 5 -10 12 -10 9 0 9 -3 0 -12 -10 -10 -15 -10
-23 2 -8 12 -9 10 -4 -7 5 -17 2 -23 -10 -23 -15 0 -51 -16 -119 -53 -25 -14
-31 -14 -43 -1 -8 8 -20 14 -26 14 -7 0 22 17 63 38 41 20 77 40 78 45 2 4 9
7 15 7 7 0 59 27 117 60 57 34 114 60 125 58 26 -3 47 10 39 24 -4 7 -2 8 5 4
13 -8 81 14 81 26 0 4 6 8 13 8 6 0 26 11 42 25 34 28 9 24 -35 -5 -40 -27
-70 -34 -36 -8 68 51 110 66 136 47z m-636 -355 c8 -21 -1 -34 -24 -34 -10 0
-20 -6 -23 -12 -2 -8 -21 -12 -50 -11 -26 1 -50 -3 -53 -9 -5 -7 2 -9 20 -4
51 13 17 -12 -88 -63 -57 -28 -107 -51 -110 -51 -3 0 -38 -16 -79 -35 -41 -19
-79 -35 -85 -35 -7 0 -12 -4 -12 -8 0 -4 -19 -15 -42 -24 -24 -9 -60 -24 -82
-33 -34 -15 -38 -15 -33 -1 7 18 -10 21 -33 6 -13 -9 -13 -11 0 -20 12 -8 11
-10 -8 -10 -13 0 -20 -4 -17 -10 8 -12 -27 -13 -41 -1 -5 5 -26 3 -49 -5 l-40
-14 43 5 c52 6 56 -10 5 -25 -21 -6 -60 -21 -87 -35 -27 -13 -53 -22 -58 -19
-4 3 -18 -1 -30 -8 -21 -11 -87 -37 -97 -38 -2 0 -1 7 3 15 3 8 1 15 -4 15 -6
0 -10 -8 -10 -17 0 -18 -29 -34 -118 -67 -48 -18 -76 -21 -67 -6 3 6 -4 10
-17 10 -30 1 63 45 112 53 19 3 29 3 23 0 -29 -11 -10 -20 22 -11 19 6 32 15
29 20 -10 16 18 38 57 44 22 4 39 10 39 14 0 5 15 11 33 15 17 4 59 19 92 35
114 55 190 83 225 83 27 -1 30 1 15 7 -17 6 -11 12 39 34 32 14 67 26 77 26
11 0 19 4 19 8 0 5 26 20 58 34 109 49 127 57 152 71 43 24 115 57 123 57 4 0
20 8 34 17 23 15 105 50 124 52 4 1 10 -6 13 -15z m-244 -24 c0 -5 -10 -10
-22 -10 -18 0 -20 -2 -9 -9 10 -7 23 -3 39 10 14 10 31 19 38 19 29 0 12 -16
-44 -42 -167 -78 -219 -99 -237 -94 -25 5 -135 -29 -115 -36 8 -3 27 -1 43 3
15 4 27 4 27 -1 0 -16 -72 -22 -87 -8 -12 12 -4 19 49 43 35 16 75 29 91 29
15 1 27 6 28 11 1 12 157 93 182 94 9 1 17 -3 17 -9z m-1061 -539 l24 -18
-119 -38 c-66 -20 -138 -43 -162 -51 -23 -8 -52 -14 -62 -14 -11 0 -20 -3 -20
-8 0 -4 -24 -16 -52 -26 -29 -10 -59 -21 -65 -23 -7 -3 -13 2 -13 11 0 16 -10
20 -42 17 -10 -1 -18 1 -18 6 0 10 99 35 111 27 5 -3 9 0 9 6 0 6 10 10 23 9
12 -2 42 7 67 18 25 11 61 24 80 28 19 4 41 12 48 17 6 6 12 7 12 4 0 -4 6 -4
13 1 11 7 125 50 137 52 3 0 16 -8 29 -18z"/>
<path d="M6490 15591 c-125 -64 -245 -133 -248 -142 -2 -5 -7 -7 -12 -4 -4 2
-44 -18 -89 -45 -45 -28 -84 -50 -86 -50 -1 0 -32 -18 -66 -40 -35 -22 -77
-46 -94 -55 -16 -8 -82 -49 -145 -91 -63 -41 -128 -82 -144 -92 -16 -9 -83
-53 -148 -97 -65 -44 -126 -84 -135 -90 -10 -5 -75 -52 -145 -102 -70 -51
-130 -93 -133 -93 -4 0 -32 -21 -59 -45 -6 -6 -63 -49 -126 -97 -63 -47 -124
-95 -134 -107 -11 -12 -24 -21 -30 -21 -6 0 -29 -17 -52 -38 -22 -20 -55 -48
-73 -62 -18 -13 -44 -34 -57 -47 -13 -12 -40 -34 -61 -50 -20 -15 -48 -39 -62
-52 -15 -13 -41 -35 -58 -48 -31 -24 -42 -43 -25 -43 4 0 32 24 63 53 31 28
83 73 115 99 33 25 70 56 84 68 14 12 41 34 60 48 19 15 60 47 90 72 30 26 82
66 115 91 33 24 62 47 63 52 2 4 9 7 15 7 7 0 26 13 42 29 17 15 51 41 75 56
25 15 49 34 53 41 4 8 13 14 18 14 6 0 17 6 24 13 8 6 30 23 50 37 20 14 58
42 85 63 27 20 51 37 54 37 3 0 62 40 133 88 131 90 391 256 440 281 16 8 30
17 33 20 3 4 16 12 30 19 14 7 39 21 55 32 17 11 37 23 45 27 8 3 33 18 55 32
22 14 58 35 80 47 117 62 201 108 205 113 3 3 49 28 103 55 53 27 97 51 97 52
0 11 -33 -1 -100 -35z"/>
<path d="M6288 15571 c-48 -25 -93 -52 -100 -58 -6 -7 -16 -13 -22 -13 -5 0
-58 -29 -117 -65 -59 -36 -110 -65 -113 -65 -5 0 -230 -140 -461 -288 -121
-77 -204 -136 -205 -144 0 -5 -4 -8 -10 -8 -8 0 -80 -48 -213 -143 -17 -12
-40 -30 -52 -40 -11 -10 -46 -36 -78 -58 -36 -26 -55 -45 -50 -52 5 -8 9 -6
11 6 2 9 8 15 13 12 5 -4 9 -2 9 2 0 5 15 17 33 28 32 18 147 103 157 115 3 4
20 15 38 25 17 11 32 23 32 27 0 4 5 8 10 8 10 0 47 24 195 130 44 32 96 66
115 76 19 10 37 21 40 24 11 11 99 70 104 70 7 0 117 71 126 80 6 7 221 136
235 141 10 4 123 69 210 122 28 16 84 48 125 69 83 44 90 49 69 47 -8 -1 -53
-22 -101 -48z"/>
<path d="M6688 15612 c-1 -4 -33 -22 -70 -39 -37 -18 -100 -51 -140 -74 -101
-58 -141 -80 -233 -129 -44 -23 -87 -48 -95 -55 -8 -7 -35 -23 -60 -36 -25
-13 -47 -26 -50 -29 -3 -3 -16 -11 -30 -18 -62 -30 -91 -50 -80 -57 6 -4 19 0
28 8 9 8 32 20 50 28 17 8 32 17 32 21 0 5 4 8 10 8 5 0 49 24 97 53 48 29
115 66 148 82 33 17 62 33 63 38 2 4 8 7 13 7 5 0 33 16 63 35 30 19 60 35 66
35 7 0 24 8 38 19 15 10 61 34 102 54 101 49 112 57 78 57 -14 0 -28 -4 -30
-8z"/>
<path d="M6790 15572 c-52 -26 -97 -49 -100 -52 -3 -3 -25 -14 -50 -25 -25
-10 -61 -29 -80 -40 -48 -29 -166 -95 -215 -119 -22 -11 -42 -22 -45 -25 -3
-3 -25 -17 -50 -30 -25 -13 -61 -33 -80 -46 -19 -12 -114 -69 -210 -126 -96
-56 -176 -106 -178 -111 -2 -4 -8 -8 -14 -8 -5 0 -21 -9 -35 -20 -14 -11 -30
-17 -36 -13 -6 3 -7 1 -3 -5 7 -11 -6 -17 -27 -13 -5 1 -5 -4 -1 -10 5 -9 2
-10 -10 -6 -9 4 -15 3 -12 -1 2 -4 -44 -40 -102 -79 -204 -137 -377 -256 -403
-277 -14 -11 -36 -29 -50 -38 -13 -10 -44 -32 -67 -50 -24 -18 -56 -42 -71
-53 -47 -36 -325 -257 -362 -289 -19 -17 -62 -54 -95 -83 -58 -51 -81 -70
-126 -107 -110 -91 -252 -224 -481 -451 -89 -88 -165 -159 -169 -158 -5 2 -7
0 -6 -5 2 -7 -57 -74 -157 -176 -50 -51 -174 -189 -211 -235 -10 -13 -24 -28
-29 -35 -6 -6 -35 -40 -64 -76 -30 -36 -57 -67 -60 -70 -5 -4 -98 -118 -138
-170 -6 -8 -32 -40 -56 -70 -24 -31 -74 -96 -110 -145 -37 -50 -70 -95 -75
-101 -5 -5 -22 -30 -38 -55 -16 -24 -31 -46 -34 -49 -7 -6 -46 -63 -163 -240
-49 -74 -97 -147 -108 -162 -10 -15 -19 -32 -19 -38 0 -5 -4 -10 -10 -10 -5 0
-10 -4 -10 -9 0 -9 -81 -153 -90 -161 -4 -3 -26 -41 -50 -85 -24 -44 -46 -82
-49 -85 -11 -9 -81 -155 -81 -167 0 -7 -5 -13 -11 -13 -5 0 -7 -5 -3 -11 6
-10 37 42 97 161 12 25 26 48 30 51 5 3 8 9 8 13 -3 20 0 26 11 20 7 -4 8 -3
4 4 -4 7 -2 12 4 12 6 0 8 5 5 10 -3 6 -2 10 3 10 4 0 24 30 43 68 19 37 36
69 39 72 9 8 110 170 110 176 0 4 14 23 30 44 17 21 30 41 30 45 0 3 20 35 45
69 25 35 45 68 45 74 0 5 7 16 17 23 9 8 32 39 52 69 19 30 40 60 46 67 7 6
37 49 68 95 52 76 116 161 200 262 17 21 48 61 69 87 20 27 42 55 50 63 7 8
31 37 53 65 22 28 56 69 75 91 19 21 49 56 65 76 17 21 44 52 60 69 17 16 66
71 110 120 44 49 86 96 92 103 7 7 16 18 20 25 5 7 25 27 46 45 21 17 36 32
34 32 -8 0 417 415 508 496 56 49 136 121 179 159 43 39 86 74 94 79 9 5 26
20 39 34 13 14 23 21 23 17 0 -5 6 -2 13 7 13 18 187 161 263 218 26 19 68 54
94 78 26 23 50 42 55 42 4 0 19 10 34 23 15 12 38 30 52 39 13 10 44 32 68 50
162 122 533 374 544 370 5 -1 5 3 1 9 -5 9 -2 10 9 6 10 -4 16 -2 14 6 -1 7 5
12 13 12 8 0 31 13 51 28 24 18 43 25 55 21 15 -5 16 -4 5 4 -12 8 -5 16 34
39 26 15 84 49 129 76 44 26 88 52 96 57 8 6 24 14 36 19 11 5 27 15 35 23 15
13 50 33 124 71 35 17 71 38 162 94 13 7 26 14 30 15 5 0 26 12 48 25 22 13
67 36 100 53 33 16 67 33 75 38 8 5 31 17 50 26 19 10 46 24 60 32 14 7 46 22
73 34 26 11 47 23 47 25 0 14 -45 -1 -130 -43z"/>
<path d="M7012 15595 c-4 -6 -36 -23 -72 -38 -36 -16 -72 -32 -80 -37 -8 -5
-69 -36 -135 -69 -190 -96 -499 -265 -530 -291 -11 -9 -49 -31 -85 -50 -36
-18 -67 -36 -70 -39 -3 -3 -16 -12 -29 -19 -13 -8 -39 -23 -59 -33 -19 -11
-40 -25 -47 -32 -7 -7 -38 -28 -69 -47 -129 -79 -285 -179 -296 -190 -8 -8
-122 -83 -151 -100 -15 -8 -42 -27 -60 -42 -33 -26 -65 -50 -231 -171 -43 -32
-82 -57 -88 -57 -5 0 -10 -4 -10 -8 0 -5 -20 -23 -45 -41 -24 -17 -51 -38 -58
-46 -8 -8 -45 -37 -83 -65 -38 -28 -76 -59 -84 -68 -8 -9 -35 -33 -60 -52 -54
-41 -136 -110 -250 -210 -16 -14 -48 -42 -72 -62 -24 -20 -81 -73 -127 -117
-47 -45 -86 -81 -87 -81 -11 0 -480 -478 -590 -601 -145 -162 -268 -303 -294
-335 -8 -11 -51 -64 -96 -119 -68 -84 -148 -190 -293 -385 -15 -19 -38 -52
-51 -72 -14 -21 -28 -38 -32 -38 -5 0 -8 -5 -8 -12 0 -6 -18 -34 -39 -62 -22
-28 -63 -89 -91 -136 -29 -47 -67 -106 -85 -131 -18 -26 -44 -66 -57 -90 -13
-24 -37 -64 -53 -89 -17 -25 -44 -70 -59 -100 -26 -49 -112 -201 -136 -240 -5
-8 -27 -50 -48 -92 -21 -43 -42 -75 -46 -71 -4 4 -4 -1 0 -12 7 -18 6 -19 -12
-5 -15 11 -16 11 -6 0 18 -21 15 -34 -5 -19 -16 12 -17 12 -6 -2 7 -8 9 -26 6
-40 -3 -14 -2 -21 3 -16 5 5 9 12 10 15 1 10 27 66 34 72 3 3 23 40 45 83 22
43 45 83 52 88 6 6 9 18 6 26 -5 12 -3 14 7 8 8 -5 11 -4 6 3 -3 6 -1 17 6 24
15 16 38 58 79 138 15 30 35 64 45 75 11 11 28 38 39 60 11 22 27 51 37 65 9
14 38 58 65 99 26 41 53 81 58 90 24 36 81 125 90 140 11 18 54 80 68 96 4 6
65 89 135 185 128 176 233 313 307 401 22 26 52 62 67 81 42 51 67 80 101 118
18 19 79 89 137 155 58 65 138 153 178 195 41 41 98 101 128 133 31 31 56 57
57 57 2 0 74 70 162 156 88 87 205 197 260 247 55 49 119 107 142 128 23 22
46 39 52 39 5 0 11 3 13 8 2 4 28 28 58 52 30 25 84 70 121 100 37 30 95 77
130 105 35 27 66 52 69 55 19 20 375 282 495 365 100 69 177 123 190 133 6 4
37 25 70 46 33 21 83 54 112 74 32 21 58 32 68 28 23 -8 39 3 26 18 -8 10 2
20 42 41 46 25 111 64 172 102 11 7 47 27 80 44 33 17 63 36 66 40 3 5 42 28
86 52 44 23 120 64 169 91 49 27 132 71 184 99 52 27 106 55 120 63 94 50 295
143 318 147 15 3 3 4 -26 4 -29 0 -56 -6 -60 -12z"/>
<path d="M7160 15575 c-25 -13 -74 -36 -110 -51 -36 -16 -66 -32 -68 -36 -2
-4 -8 -8 -13 -8 -12 0 -322 -151 -329 -161 -3 -3 -39 -23 -80 -44 -41 -21 -77
-40 -80 -44 -3 -3 -32 -19 -65 -36 -33 -16 -72 -38 -87 -47 -28 -19 -116 -70
-208 -121 -30 -17 -77 -45 -105 -64 -27 -18 -55 -33 -62 -33 -6 0 -13 -4 -15
-8 -5 -11 -60 -50 -169 -117 -118 -73 -410 -270 -494 -334 -34 -25 -73 -55
-89 -66 -15 -11 -69 -51 -119 -88 -51 -38 -105 -79 -121 -90 -16 -12 -34 -26
-40 -32 -6 -5 -56 -46 -111 -89 -55 -43 -105 -85 -112 -93 -6 -8 -25 -25 -43
-38 -17 -12 -72 -60 -122 -106 -50 -46 -108 -97 -130 -112 -21 -16 -38 -33
-38 -38 0 -5 -4 -9 -9 -9 -28 0 -725 -698 -825 -826 -12 -15 -29 -34 -39 -43
-11 -9 -38 -41 -62 -71 -23 -30 -53 -67 -66 -81 -13 -15 -31 -35 -39 -45 -8
-11 -38 -46 -65 -79 -28 -34 -60 -74 -72 -90 -54 -71 -85 -111 -96 -125 -19
-23 -150 -200 -177 -240 -13 -19 -28 -36 -32 -38 -4 -2 -8 -8 -8 -14 0 -5 -20
-36 -45 -68 -25 -32 -45 -61 -45 -65 0 -4 -27 -44 -60 -89 -33 -46 -60 -86
-60 -90 0 -4 -5 -12 -10 -19 -29 -34 -111 -170 -240 -400 -14 -26 -29 -45 -32
-41 -3 3 -5 -3 -5 -13 1 -10 -3 -17 -10 -16 -7 2 -10 -3 -7 -10 2 -7 -11 -40
-31 -72 -19 -32 -35 -66 -35 -74 0 -14 -2 -14 -11 -1 -8 12 -9 11 -5 -6 4 -12
-1 -28 -12 -40 -10 -10 -27 -43 -37 -71 -13 -35 -22 -49 -27 -40 -5 7 -6 -1
-2 -17 5 -19 3 -27 -3 -23 -19 12 -26 -45 -8 -62 16 -15 17 -14 12 4 -4 11 4
44 17 74 22 51 23 52 30 26 4 -15 9 -25 12 -23 2 3 0 18 -6 33 -6 16 -7 31 -3
34 9 6 34 56 55 108 11 27 14 30 20 15 7 -15 7 -14 6 3 -1 11 10 41 25 66 15
25 27 51 27 57 0 7 5 12 11 12 5 0 7 5 3 11 -3 6 -2 14 3 18 14 10 78 115 76
123 -2 5 2 8 7 8 6 0 10 5 10 11 0 6 18 38 40 71 22 33 40 63 40 66 0 27 429
652 527 768 24 28 43 54 43 58 0 7 34 49 76 93 17 18 29 34 27 37 -3 3 5 15
18 28 13 14 42 46 64 73 22 26 45 53 50 59 6 6 35 40 64 76 30 36 60 69 67 73
8 4 14 13 14 19 0 5 11 19 26 30 14 11 23 22 21 24 -2 2 38 46 87 99 50 52
115 122 145 155 29 33 60 60 67 60 7 0 16 5 20 12 5 7 2 8 -7 3 -15 -8 121
134 182 191 20 18 72 69 117 112 59 57 84 76 92 68 8 -8 9 -6 5 5 -4 11 3 24
22 39 15 12 53 45 83 73 30 29 64 59 76 67 12 8 54 45 95 82 41 36 88 77 104
90 17 12 71 57 121 98 124 103 153 126 188 152 16 13 44 35 62 51 17 15 35 27
39 27 4 0 28 17 54 38 25 20 62 48 81 62 19 13 40 28 45 32 24 20 317 226 383
271 44 29 80 46 89 42 9 -3 13 -8 10 -12 -4 -3 -1 -13 6 -21 10 -13 8 -14 -13
-8 -15 5 -20 4 -12 -2 9 -6 -13 -24 -73 -63 -48 -30 -107 -70 -133 -89 -26
-20 -76 -56 -111 -80 -36 -25 -74 -53 -85 -62 -12 -10 -93 -71 -181 -137 -129
-96 -286 -220 -437 -346 -9 -8 -43 -35 -75 -61 -60 -48 -77 -64 -223 -201 -47
-44 -105 -97 -130 -119 -24 -21 -60 -56 -79 -76 -29 -31 -37 -35 -50 -25 -14
10 -14 10 -4 -4 10 -12 1 -26 -55 -80 -61 -59 -92 -79 -84 -55 2 5 -4 4 -12
-4 -17 -14 -22 -25 -7 -15 17 10 21 -12 6 -25 -17 -14 -17 -14 -33 15 -10 18
-11 16 -8 -11 5 -34 27 -8 -284 -339 -51 -55 -226 -259 -275 -320 -22 -27 -46
-57 -55 -66 -8 -8 -42 -51 -75 -93 -33 -43 -80 -104 -105 -135 -25 -32 -54
-70 -65 -86 -11 -15 -33 -44 -50 -65 -34 -43 -140 -195 -170 -245 -12 -19 -28
-42 -38 -53 -9 -10 -17 -24 -17 -30 0 -7 -4 -12 -9 -12 -5 0 -11 -8 -15 -17
-3 -10 -23 -43 -44 -74 -83 -124 -93 -141 -114 -180 -16 -31 -23 -37 -30 -27
-7 10 -8 8 -4 -5 5 -16 -9 -54 -25 -67 -9 -7 -66 -107 -85 -147 -8 -18 -17
-33 -20 -33 -3 0 -3 4 0 9 7 11 -21 8 -31 -4 -4 -4 -3 -5 4 -2 21 13 20 -16
-3 -57 -13 -23 -40 -75 -61 -116 -21 -41 -41 -76 -45 -78 -5 -2 -8 -11 -8 -20
-1 -15 -3 -14 -15 2 -17 22 -20 14 -5 -13 7 -14 1 -36 -25 -89 -19 -39 -35
-75 -35 -81 0 -5 -5 -13 -11 -17 -8 -4 -9 1 -4 17 5 19 4 21 -4 9 -9 -12 -11
-13 -11 -1 0 8 -2 12 -4 10 -10 -9 17 -89 27 -82 6 4 8 0 4 -10 -7 -20 1 -47
14 -47 5 0 9 7 9 16 0 8 -4 13 -9 10 -18 -12 -3 93 20 136 13 23 27 45 32 46
4 2 7 13 7 23 0 13 4 18 12 13 8 -5 9 -2 5 10 -4 10 4 33 19 58 15 23 44 76
65 119 21 43 43 81 49 84 5 3 10 15 10 25 0 10 6 23 13 27 6 4 20 24 31 43 10
19 32 60 49 90 17 30 43 76 57 103 15 26 30 44 33 40 4 -3 7 0 7 8 0 8 29 58
65 112 36 54 65 102 65 107 0 6 5 10 10 10 6 0 10 5 10 11 0 9 46 80 75 116
23 28 32 41 68 95 20 32 37 60 37 62 0 3 10 16 23 29 12 13 31 36 42 52 18 27
46 64 149 200 45 61 50 66 106 135 53 64 62 75 75 92 29 38 132 156 153 175
13 12 22 24 20 26 -3 5 72 89 186 211 21 22 81 87 134 143 52 57 99 100 104
97 4 -3 7 -2 6 3 -4 12 53 73 69 73 7 0 12 3 11 8 -5 13 56 73 69 67 8 -2 13
1 11 8 -2 11 62 79 137 144 8 7 51 47 97 89 124 114 137 126 210 186 36 31 75
65 86 75 42 41 212 177 290 234 24 17 56 43 71 57 15 15 103 82 194 150 150
111 169 122 189 112 20 -10 21 -10 6 3 -15 12 -12 17 34 53 29 21 66 48 83 59
49 31 86 56 134 92 43 32 68 43 56 23 -4 -6 1 -7 11 -3 12 4 14 8 6 11 -10 3
-10 7 -1 18 9 11 15 11 25 3 10 -8 19 -7 36 5 20 14 16 21 -13 18 -3 -1 -6 6
-6 14 0 9 4 11 10 5 6 -6 26 2 56 22 76 52 85 57 104 63 9 4 17 10 17 15 0 5
7 5 17 2 12 -5 14 -3 8 7 -6 10 -2 11 21 6 20 -5 25 -4 14 3 -18 12 -21 9 75
66 184 110 268 154 278 148 6 -3 7 -1 3 6 -5 7 8 18 36 31 43 19 119 61 128
70 10 10 477 246 650 328 183 87 219 102 237 95 15 -6 15 -7 -3 -14 -16 -6
-16 -8 -2 -8 9 -1 19 3 23 8 9 16 -35 34 -65 27 -16 -3 -42 -1 -60 4 -17 5
-41 5 -52 1 l-22 -8 22 -5 c14 -4 20 -2 15 5 -4 7 0 8 11 4 10 -4 24 -7 32 -7
8 0 14 -4 14 -10 0 -5 -8 -10 -17 -10 -9 0 -47 -16 -84 -35 -38 -19 -73 -35
-79 -35 -12 0 -361 -170 -370 -180 -10 -11 -150 -81 -150 -75 0 3 -10 -4 -22
-15 -16 -15 -30 -19 -48 -15 -17 4 -21 3 -11 -3 10 -7 -4 -18 -50 -42 -35 -18
-66 -35 -69 -39 -3 -3 -23 -16 -45 -28 -22 -11 -58 -31 -80 -44 -22 -12 -58
-32 -80 -44 -22 -11 -65 -37 -96 -57 -31 -20 -78 -49 -105 -64 -27 -14 -66
-39 -86 -55 -20 -16 -40 -29 -43 -29 -3 0 -32 -18 -64 -40 -32 -21 -61 -36
-65 -33 -3 3 -8 -2 -12 -11 -3 -9 -11 -13 -17 -9 -6 4 -7 1 -2 -7 5 -8 3 -11
-6 -8 -8 3 -14 10 -14 16 0 5 -3 14 -7 18 -14 14 -8 25 10 20 9 -3 24 -1 32 5
11 8 9 9 -10 4 -20 -6 -22 -5 -13 5 6 7 20 17 31 24 76 43 170 102 187 117 11
9 25 18 30 20 14 5 209 122 215 129 3 3 31 18 63 33 31 15 57 32 57 38 0 6 4
8 10 4 5 -3 18 2 30 12 24 21 140 84 340 184 80 40 152 78 160 85 8 7 18 13
23 13 4 0 21 8 37 16 17 9 36 13 42 9 6 -4 8 -3 5 3 -7 11 -9 10 156 87 64 31
117 58 117 61 0 12 -38 3 -80 -20z"/>
<path d="M7491 15571 c-11 -7 -11 -9 0 -14 8 -3 5 -6 -8 -6 -12 -1 -28 -7 -35
-13 -27 -25 -57 -38 -75 -31 -10 3 -15 3 -11 -2 10 -10 -92 -57 -109 -50 -8 2
-11 0 -8 -5 3 -6 -2 -13 -12 -17 -110 -39 -628 -302 -828 -421 -33 -19 -80
-47 -105 -61 -125 -72 -271 -162 -387 -238 -75 -49 -118 -71 -130 -67 -15 5
-16 4 -3 -5 13 -10 13 -12 0 -21 -8 -6 -23 -8 -33 -6 -9 2 -15 1 -12 -4 7 -11
-20 -31 -30 -22 -5 4 -4 1 0 -7 6 -11 4 -13 -11 -7 -10 4 -15 4 -11 0 4 -4
-36 -35 -88 -70 -52 -34 -111 -76 -130 -93 -19 -17 -50 -38 -68 -47 -17 -10
-62 -41 -99 -71 -37 -29 -70 -53 -74 -53 -3 0 -16 -9 -28 -20 -11 -10 -77 -62
-146 -115 -186 -142 -217 -166 -263 -207 -23 -21 -48 -38 -55 -38 -6 0 -11 -4
-10 -8 2 -4 -37 -43 -87 -86 -49 -42 -119 -103 -154 -134 -36 -31 -80 -70 -99
-87 -18 -16 -77 -72 -130 -123 -70 -67 -98 -89 -104 -80 -6 8 -7 5 -3 -9 6
-21 -8 -33 -18 -15 -2 4 -3 2 -1 -3 1 -6 -5 -20 -13 -30 -12 -17 -15 -18 -23
-5 -9 13 -11 13 -20 0 -5 -8 -7 -23 -4 -32 5 -17 -10 -26 -19 -10 -2 4 -3 2
-1 -5 1 -6 -6 -19 -17 -29 -11 -10 -19 -12 -19 -6 0 7 -5 12 -11 12 -8 0 -7
-5 1 -15 7 -9 10 -19 6 -22 -4 -4 -12 -1 -17 7 -8 11 -9 10 -4 -7 7 -24 -9
-32 -19 -10 -3 7 -4 5 -3 -4 1 -9 -16 -36 -38 -60 -22 -25 -94 -103 -160 -175
-66 -71 -149 -163 -185 -203 -36 -41 -70 -79 -75 -85 -6 -6 -30 -36 -54 -66
-25 -30 -50 -59 -56 -65 -6 -5 -37 -45 -69 -87 -32 -43 -62 -78 -67 -78 -5 0
-9 -5 -9 -10 0 -11 -63 -97 -99 -135 -10 -11 -40 -51 -66 -89 -26 -38 -52 -74
-56 -80 -27 -33 -119 -165 -119 -171 0 -4 -11 -21 -25 -39 -30 -36 -115 -164
-115 -171 0 -3 -20 -36 -45 -73 -25 -37 -45 -72 -45 -79 0 -6 -3 -13 -8 -15
-8 -3 -52 -72 -94 -148 -32 -57 -97 -176 -113 -206 -7 -13 -15 -21 -19 -17 -4
4 -4 -1 0 -11 5 -13 4 -17 -4 -12 -8 5 -10 2 -6 -8 8 -20 24 -21 24 -1 0 8 4
15 9 15 5 0 12 11 15 25 4 17 11 23 19 19 7 -4 9 -4 5 1 -7 8 31 90 62 135 18
25 44 71 83 145 12 22 29 49 39 60 9 11 24 37 32 57 9 20 27 48 41 62 14 15
23 26 21 26 -6 0 21 41 120 186 120 176 151 221 194 279 25 33 55 75 68 94 13
18 29 40 37 48 8 7 51 62 97 121 45 59 88 111 95 115 7 4 13 14 13 22 0 7 4
15 9 17 5 2 33 32 62 68 74 89 74 88 129 148 28 30 57 66 67 82 13 23 22 28
49 25 19 -1 31 2 28 7 -3 5 -14 6 -25 3 -30 -10 -23 3 31 56 28 27 50 51 50
55 0 13 31 35 40 29 6 -4 9 -3 8 2 -2 5 17 32 41 61 37 44 47 50 60 40 13 -10
14 -10 4 2 -11 11 13 39 130 154 79 78 186 180 238 228 52 47 125 115 163 150
38 34 76 62 83 61 8 0 12 5 9 13 -3 7 3 18 14 24 10 6 39 27 63 48 24 20 63
53 87 72 24 19 60 49 80 66 71 62 289 233 436 342 110 81 157 111 170 106 14
-4 15 -3 6 4 -14 10 37 50 198 157 41 28 81 56 89 63 7 7 20 11 28 8 8 -3 12
-2 8 3 -3 5 12 20 32 32 21 13 41 28 45 33 4 6 8 8 8 4 0 -5 20 7 44 25 57 41
157 102 170 102 5 0 23 13 39 28 18 17 38 26 48 24 10 -3 17 0 16 5 -3 17 105
78 128 72 15 -4 16 -3 6 4 -10 8 -5 14 25 28 22 10 53 27 69 39 17 12 55 34
85 50 30 15 57 30 60 34 6 8 156 85 443 229 199 100 230 112 245 100 15 -11
15 -11 5 3 -11 13 -5 19 41 40 34 17 60 23 73 18 13 -5 20 -3 20 6 0 7 -7 11
-16 9 -9 -3 9 7 39 22 30 14 67 27 82 27 15 0 24 5 22 12 -5 13 61 39 76 30 5
-3 10 -1 10 4 0 6 -8 11 -17 11 -10 0 -27 3 -38 5 -11 3 -26 1 -34 -4z"/>
<path d="M5870 15148 c-65 -39 -195 -123 -208 -135 -7 -7 -18 -13 -23 -13 -13
0 -193 -121 -209 -141 -3 -4 -15 -9 -27 -13 -13 -4 -23 -12 -23 -17 0 -5 -5
-9 -11 -9 -9 0 -148 -98 -229 -161 -13 -10 -27 -19 -31 -19 -4 0 -18 -9 -31
-20 -12 -10 -59 -46 -103 -80 -196 -149 -279 -213 -290 -224 -6 -6 -53 -45
-104 -86 -147 -119 -168 -140 -149 -140 10 0 23 9 30 20 7 11 16 20 21 20 4 0
61 44 125 99 124 104 176 144 417 325 166 125 199 148 430 303 88 59 165 111
170 116 31 25 132 86 143 87 6 0 12 5 12 10 0 6 7 10 15 10 8 0 15 5 15 10 0
6 6 10 13 10 8 0 22 9 31 19 10 11 31 23 47 26 16 4 29 11 29 16 0 14 -22 9
-60 -13z"/>
<path d="M5380 15114 c-19 -13 -42 -30 -51 -37 -8 -8 -31 -22 -50 -33 -19 -10
-45 -28 -59 -40 -14 -12 -51 -39 -84 -60 -32 -22 -71 -48 -86 -59 -15 -11 -50
-35 -76 -54 -27 -19 -76 -55 -109 -80 -34 -25 -74 -55 -90 -66 -16 -11 -39
-30 -52 -42 -13 -13 -28 -23 -33 -23 -6 0 -10 -4 -10 -9 0 -5 -9 -12 -19 -16
-11 -3 -39 -24 -63 -47 -24 -22 -61 -53 -83 -68 -22 -15 -56 -43 -76 -61 -20
-19 -51 -45 -69 -59 -18 -14 -50 -41 -71 -60 -21 -19 -44 -39 -51 -45 -35 -27
-250 -218 -305 -271 -23 -23 -70 -67 -104 -98 -34 -31 -57 -56 -51 -56 6 0 33
20 59 45 26 24 75 70 108 100 105 98 171 159 202 185 16 14 51 43 78 65 26 22
60 51 75 65 15 14 47 41 70 60 24 19 75 62 115 95 83 69 111 91 215 171 41 32
80 62 85 66 74 59 340 248 545 386 111 75 107 72 89 72 -8 -1 -30 -12 -49 -26z"/>
<path d="M4389 14071 c-21 -22 -87 -80 -129 -115 -54 -44 -346 -317 -453 -423
-170 -168 -446 -469 -591 -643 -48 -58 -107 -127 -130 -155 -24 -27 -67 -82
-97 -121 -30 -39 -69 -89 -86 -110 -72 -87 -231 -310 -226 -317 3 -5 17 9 32
30 14 21 60 83 101 137 41 54 88 117 105 140 28 40 144 185 187 236 12 14 41
49 65 78 24 30 60 71 80 93 20 21 43 49 52 61 8 13 25 33 36 44 11 12 42 46
69 75 221 243 483 510 651 664 54 50 124 115 155 145 31 30 76 71 99 90 83 67
114 97 105 102 -5 3 -16 -2 -25 -11z"/>
<path d="M3014 12894 c-16 -19 -44 -54 -62 -77 -19 -23 -41 -51 -50 -62 -10
-11 -40 -49 -67 -85 -28 -36 -52 -67 -55 -70 -19 -19 -70 -91 -70 -99 0 -5 -3
-11 -8 -13 -4 -1 -32 -37 -62 -78 -30 -41 -58 -79 -63 -85 -39 -52 -66 -90
-89 -126 -15 -24 -72 -111 -127 -194 -55 -82 -100 -157 -100 -165 -1 -8 9 1
21 20 80 129 300 455 345 510 23 28 78 105 95 131 9 14 23 32 30 40 8 8 44 53
80 101 36 48 78 99 92 115 14 15 26 33 26 40 0 6 3 13 8 15 14 6 103 118 94
118 -6 0 -23 -16 -38 -36z"/>
<path d="M2644 12153 c-10 -17 -58 -89 -105 -160 -127 -189 -329 -514 -329
-528 0 -2 -16 -32 -36 -67 -44 -76 -104 -188 -104 -194 0 -2 4 -4 8 -4 5 0 17
19 28 43 10 23 24 48 31 55 6 7 17 28 24 47 7 19 17 35 21 35 4 0 8 4 8 10 0
5 13 31 29 57 47 78 80 136 99 173 9 19 20 37 25 38 4 2 7 10 7 17 0 8 6 18
13 22 6 4 21 24 32 44 11 20 40 67 65 105 25 38 50 76 55 85 6 9 33 50 60 90
28 40 55 80 60 90 6 9 17 24 24 33 7 8 11 21 9 27 -2 7 -13 -1 -24 -18z"/>
<path d="M5662 12644 c7 -17 54 -119 103 -227 l90 -197 253 0 c269 0 296 4
337 49 64 72 -31 272 -160 338 -86 44 -137 52 -391 59 l-244 7 12 -29z"/>
<path d="M14650 12249 c-61 -26 -86 -83 -71 -163 7 -36 20 -60 52 -94 39 -42
40 -43 6 -12 l-38 35 21 -60 c85 -231 218 -419 338 -475 46 -22 122 -38 122
-26 0 3 -6 14 -14 23 -8 10 -31 38 -52 63 -20 25 -59 72 -88 104 -55 63 -64
74 -129 151 -23 27 -62 71 -86 97 -24 27 -40 48 -35 47 11 -1 133 -138 298
-336 102 -123 132 -153 152 -153 121 0 127 188 14 425 -113 237 -256 370 -407
381 -32 2 -69 -1 -83 -7z"/>
<path d="M7510 12360 c-67 -16 -91 -80 -70 -181 21 -99 7 -94 260 -97 l221 -3
-12 23 c-53 102 -157 207 -239 241 -48 19 -118 27 -160 17z"/>
<path d="M11495 12301 c-11 -5 -29 -19 -40 -31 -26 -29 -27 -126 -1 -192 l19
-48 224 0 224 0 -22 40 c-59 105 -173 206 -259 230 -42 12 -117 12 -145 1z"/>
<path d="M13401 12280 c-87 -13 -114 -91 -74 -217 l17 -53 207 0 c114 0 214
-3 223 -6 9 -4 16 -1 16 6 0 16 -79 126 -121 168 -71 72 -182 114 -268 102z"/>
<path d="M16105 9721 c-3 -6 -2 -11 2 -11 5 0 10 -12 11 -26 2 -22 0 -25 -13
-14 -9 8 -15 9 -15 2 0 -6 5 -14 10 -17 6 -3 10 -11 10 -16 0 -6 -5 -7 -10 -4
-6 4 -9 3 -8 -2 4 -14 -34 -117 -57 -153 -12 -20 -26 -50 -29 -68 -4 -17 -12
-35 -18 -38 -7 -5 -8 -2 -3 6 5 9 4 11 -3 6 -7 -4 -12 -16 -12 -26 0 -11 -8
-39 -17 -62 l-17 -42 -13 35 c-10 25 -12 27 -8 7 3 -14 7 -33 11 -41 3 -8 -1
-21 -8 -28 -8 -8 -22 -32 -33 -54 l-19 -40 -7 30 c-5 24 -7 26 -8 7 0 -13 -5
-20 -11 -17 -5 3 -10 -1 -10 -9 0 -10 6 -13 15 -10 10 4 15 0 15 -16 0 -11 -4
-18 -10 -15 -5 3 -10 -2 -10 -12 -1 -26 -26 -56 -41 -47 -9 5 -10 2 -6 -10 9
-22 -2 -68 -14 -60 -5 3 -9 -3 -9 -13 0 -10 -5 -25 -10 -33 -7 -12 -11 -10
-18 10 l-9 25 -17 -35 c-13 -28 -14 -31 -2 -16 9 11 19 16 23 13 8 -8 -53
-139 -77 -165 -8 -9 -24 -34 -35 -54 -11 -21 -22 -33 -26 -27 -5 8 -8 8 -13 0
-4 -6 -5 -15 -1 -20 6 -11 -135 -240 -222 -360 -10 -14 -49 -70 -88 -126 -38
-56 -80 -115 -92 -131 -13 -16 -55 -72 -95 -124 -40 -52 -78 -101 -85 -108 -7
-7 -13 -16 -13 -20 0 -4 -21 -29 -46 -57 -26 -27 -58 -67 -72 -88 -19 -29 -30
-36 -46 -32 -15 5 -17 4 -7 -3 7 -5 10 -15 7 -21 -11 -18 -26 -13 -26 9 0 11
-4 20 -10 20 -6 0 -6 -9 1 -26 7 -20 6 -31 -4 -43 -8 -9 -24 -27 -35 -41 -12
-14 -40 -45 -63 -70 -32 -35 -40 -40 -36 -22 3 13 1 20 -5 16 -5 -3 -7 -15 -4
-27 3 -13 -4 -29 -19 -46 -13 -14 -35 -39 -49 -54 -23 -27 -54 -30 -40 -4 4 7
1 6 -7 -2 -11 -10 -11 -15 -1 -18 21 -8 14 -20 -58 -95 -39 -40 -75 -77 -80
-83 -5 -5 -31 -32 -57 -58 -26 -27 -80 -81 -119 -120 -40 -40 -104 -101 -144
-137 -39 -36 -98 -90 -131 -120 -32 -30 -70 -65 -84 -77 -52 -45 -170 -149
-191 -168 -12 -11 -31 -27 -43 -35 -11 -8 -21 -20 -21 -27 0 -7 -6 -13 -12
-13 -7 0 -31 -16 -53 -36 -22 -19 -65 -54 -95 -77 -30 -23 -58 -46 -61 -51 -4
-5 -12 -5 -19 -1 -8 5 -11 4 -7 -2 4 -6 -8 -22 -26 -36 -17 -15 -43 -36 -57
-47 -14 -11 -54 -42 -89 -68 -35 -26 -76 -56 -91 -67 -15 -11 -56 -41 -91 -67
-35 -26 -70 -52 -76 -58 -7 -6 -30 -20 -50 -32 -21 -12 -65 -42 -98 -68 -33
-25 -86 -63 -117 -84 -32 -21 -55 -42 -52 -47 3 -5 27 6 52 25 66 48 140 98
171 117 23 14 255 182 286 206 6 5 26 19 45 33 19 13 37 27 40 30 3 3 14 13
26 21 19 13 76 60 143 116 14 13 30 23 34 23 4 0 18 10 31 23 13 12 32 29 42
37 128 102 143 115 244 201 171 145 383 343 563 524 158 159 195 197 208 211
91 96 121 129 159 174 25 30 56 66 70 81 14 15 37 41 52 58 15 17 30 26 33 21
3 -6 12 -10 18 -9 9 0 9 2 0 6 -21 8 -15 26 20 63 18 19 53 62 78 95 24 33 49
65 55 70 6 6 24 28 40 50 16 22 32 42 35 45 11 9 254 334 292 390 20 30 43 64
51 75 13 19 140 215 181 280 22 34 41 65 70 114 11 18 35 58 54 90 19 31 45
77 57 104 13 26 29 47 35 47 5 0 7 5 3 11 -3 6 0 15 7 20 8 4 14 12 15 16 1
19 58 122 65 117 4 -2 5 5 2 16 -9 33 6 23 22 -16 14 -34 13 -38 -5 -61 -11
-14 -20 -34 -20 -45 0 -11 -4 -16 -11 -12 -6 3 -9 17 -6 30 2 13 0 21 -4 18
-13 -7 -11 -38 2 -51 11 -11 -7 -48 -38 -81 -7 -7 -23 -35 -35 -62 -13 -28
-27 -50 -31 -50 -5 0 -6 -4 -3 -9 3 -5 -1 -12 -10 -15 -8 -3 -12 -10 -9 -16 3
-5 1 -10 -4 -10 -6 0 -11 -4 -11 -9 0 -11 -104 -186 -136 -228 -13 -17 -24
-36 -24 -41 0 -6 -4 -12 -9 -14 -4 -1 -19 -21 -32 -44 -13 -23 -43 -69 -66
-103 -24 -33 -62 -89 -85 -123 -23 -35 -61 -89 -85 -120 -24 -31 -43 -61 -43
-66 0 -5 -7 -12 -15 -16 -8 -3 -15 -12 -15 -20 0 -8 -4 -16 -8 -18 -4 -1 -38
-41 -75 -88 -37 -47 -73 -92 -80 -100 -7 -9 -25 -33 -42 -55 -16 -22 -41 -52
-55 -66 -14 -15 -37 -42 -52 -61 -52 -66 -78 -89 -91 -82 -7 5 -6 1 3 -10 12
-16 12 -19 -3 -28 -18 -9 -30 -22 -120 -125 -25 -28 -48 -49 -51 -46 -3 4 -6
1 -6 -6 0 -7 -6 -18 -12 -25 -7 -7 -40 -42 -73 -79 -42 -47 -62 -63 -68 -54
-5 7 -6 3 -2 -10 3 -13 2 -23 -3 -23 -5 0 -40 -32 -78 -71 -119 -122 -361
-358 -419 -408 -22 -19 -65 -57 -96 -85 -31 -28 -77 -69 -103 -91 -26 -22 -68
-59 -94 -81 -26 -23 -72 -61 -102 -85 -30 -24 -67 -55 -81 -69 -14 -14 -47
-41 -73 -60 -76 -57 -130 -99 -147 -115 -9 -8 -19 -15 -23 -15 -4 0 -13 -6
-20 -12 -7 -7 -25 -22 -41 -33 -15 -11 -71 -53 -124 -94 -53 -41 -105 -79
-116 -85 -30 -17 -85 -59 -85 -66 0 -4 7 -7 15 -7 8 0 15 5 15 11 0 6 18 21
39 33 21 12 72 47 112 77 41 30 94 70 119 88 25 18 47 35 50 38 3 3 23 17 45
32 22 15 53 40 70 55 32 30 60 49 88 59 9 3 17 13 17 20 0 8 4 14 8 14 4 0 41
27 82 61 41 33 93 75 115 92 22 18 62 53 90 78 27 25 58 52 67 60 10 8 31 25
46 39 15 14 57 50 92 80 35 30 77 67 92 83 15 15 29 27 32 27 2 0 23 18 45 41
24 25 44 38 52 33 8 -4 10 -3 5 5 -7 11 26 46 125 135 21 20 37 36 35 36 -2 0
33 37 78 83 45 45 124 129 176 186 52 58 114 125 137 149 24 25 49 55 57 66
12 19 15 19 32 6 17 -14 18 -14 6 2 -12 15 -12 20 2 34 9 8 21 25 27 36 6 11
17 17 25 14 8 -3 12 -1 9 4 -5 8 53 84 231 303 8 10 44 57 80 105 36 48 71 94
78 102 6 9 27 38 46 65 18 28 37 52 41 55 13 10 297 437 319 481 13 24 26 46
29 49 12 9 85 135 161 277 9 18 20 29 24 26 4 -4 4 0 0 10 -3 10 -1 17 6 17 6
0 9 4 5 9 -3 5 1 15 7 23 7 7 24 34 37 60 13 26 27 45 31 43 5 -3 6 5 2 17 -3
14 -2 19 6 14 7 -4 12 -15 12 -24 0 -13 2 -14 13 -3 10 11 10 14 0 18 -19 7
-16 29 12 81 14 26 25 54 25 62 1 12 3 11 11 -3 6 -10 8 -26 4 -35 -4 -11 -3
-13 3 -7 5 6 13 21 17 35 5 20 4 22 -5 10 -17 -23 -2 45 21 97 11 23 19 48 19
55 1 8 6 6 14 -5 14 -18 14 -18 20 1 4 11 4 27 0 36 -4 9 1 35 11 57 17 37 19
38 32 19 8 -11 11 -25 7 -31 -3 -6 0 -15 7 -20 11 -7 11 -9 -3 -9 -9 0 -19 6
-21 13 -3 6 -3 -4 0 -24 3 -21 1 -39 -6 -43 -6 -4 -11 -16 -11 -27 0 -10 -3
-19 -8 -19 -4 0 -15 -22 -25 -50 -10 -27 -22 -50 -27 -50 -6 0 -10 -8 -10 -17
0 -10 -9 -33 -20 -51 -11 -18 -20 -39 -20 -48 0 -9 -5 -12 -12 -8 -8 5 -9 2
-5 -10 5 -11 3 -15 -5 -10 -8 5 -9 2 -5 -10 4 -10 3 -15 -3 -11 -6 3 -10 -1
-10 -10 0 -23 -57 -125 -66 -117 -4 4 -4 -1 -1 -10 4 -10 2 -18 -3 -18 -5 0
-12 -9 -15 -20 -3 -11 -12 -26 -18 -32 -15 -16 -57 -102 -57 -116 0 -6 -6 -15
-12 -19 -7 -4 -21 -24 -30 -43 -21 -42 -38 -69 -55 -88 -7 -7 -13 -17 -13 -22
0 -12 -207 -339 -243 -385 -12 -15 -137 -193 -180 -255 -20 -31 -47 -66 -60
-80 -12 -14 -34 -41 -49 -62 -15 -20 -34 -42 -41 -50 -7 -7 -39 -47 -70 -88
-83 -109 -124 -160 -168 -207 -21 -23 -39 -44 -39 -47 0 -3 -8 -14 -17 -24
-22 -22 -104 -113 -193 -213 -73 -81 -137 -149 -213 -226 -29 -29 -56 -57 -62
-63 -5 -6 -48 -48 -94 -93 -208 -204 -305 -297 -310 -297 -3 0 -18 -13 -34
-29 -15 -15 -50 -46 -77 -67 -27 -21 -49 -45 -50 -51 0 -7 -4 -13 -8 -13 -5 0
-31 -20 -58 -45 -27 -24 -52 -45 -56 -45 -4 0 -18 -10 -31 -22 -13 -13 -46
-41 -72 -63 -26 -22 -53 -46 -60 -52 -8 -7 -16 -13 -19 -13 -3 0 -14 -8 -25
-19 -10 -10 -27 -23 -37 -29 -10 -6 -16 -14 -12 -17 7 -7 42 15 90 55 13 10
46 38 73 60 102 84 140 116 190 160 28 25 79 70 114 100 35 30 80 70 98 88 19
17 36 32 38 32 5 0 204 191 334 321 175 176 365 378 442 473 13 16 36 42 51
58 15 16 33 37 40 47 7 10 38 46 68 81 30 34 59 70 64 78 5 9 23 31 40 50 17
18 61 75 99 125 37 51 82 110 100 132 17 22 41 53 53 70 11 16 51 71 87 122
37 51 67 97 67 103 0 5 5 10 10 10 6 0 10 6 10 14 0 8 4 16 8 18 8 3 112 154
112 163 0 3 23 38 50 79 28 41 50 77 50 81 0 3 13 25 29 48 31 46 55 87 109
187 64 120 73 135 81 133 5 -1 7 7 4 17 -3 11 -1 20 4 20 5 0 20 25 33 55 13
30 27 52 31 49 5 -3 6 3 2 12 -5 13 -3 15 7 9 8 -5 11 -4 6 3 -3 6 8 35 25 64
28 48 36 66 38 91 1 5 6 5 12 1 8 -4 9 0 4 15 -3 11 -2 21 3 21 9 0 45 82 47
105 1 6 7 9 14 7 9 -2 10 4 6 20 -7 23 -7 23 9 3 16 -19 16 -18 10 17 -9 52
-50 152 -65 157 -8 2 -10 -2 -5 -15 4 -10 0 -31 -8 -49 -8 -16 -23 -49 -32
-72 -12 -29 -20 -39 -26 -30 -5 7 -7 3 -6 -13 2 -18 -1 -24 -12 -22 -11 3 -12
1 -4 -8 9 -9 7 -22 -10 -53 -11 -23 -24 -43 -28 -45 -4 -2 -4 -11 -1 -20 6
-15 4 -15 -9 -4 -14 11 -16 10 -11 -7 3 -13 1 -21 -6 -21 -7 0 -10 -4 -7 -8 6
-10 -40 -103 -47 -96 -3 3 -8 -8 -12 -25 -8 -35 -20 -33 -29 5 -5 18 3 46 26
95 33 70 55 91 44 42 -5 -23 -4 -25 4 -10 6 9 8 27 5 38 -12 35 35 126 57 113
6 -4 5 3 -1 14 -14 26 -14 35 -1 27 6 -4 10 6 10 22 1 25 2 26 14 11 10 -13
15 -15 24 -6 7 7 12 17 12 23 0 5 -5 3 -10 -5 -18 -27 -31 9 -15 40 7 14 23
48 36 75 17 36 24 45 27 31 3 -14 6 -16 12 -6 8 14 -5 63 -26 93 -7 12 -14 15
-19 8z"/>
<path d="M16220 9324 c-11 -25 -20 -50 -20 -55 0 -6 -4 -7 -10 -4 -5 3 -7 20
-5 38 l5 32 -10 -29 c-6 -18 -6 -36 0 -47 6 -11 6 -20 1 -24 -5 -3 -12 -19
-16 -35 -4 -17 -10 -30 -15 -30 -5 0 -14 -16 -20 -35 -6 -19 -16 -35 -22 -35
-6 0 -9 -3 -5 -6 3 -3 -10 -35 -29 -70 -19 -35 -34 -71 -34 -81 -1 -14 -4 -13
-16 7 -9 15 -13 17 -10 6 7 -20 -13 -86 -25 -86 -4 0 -10 -13 -14 -29 -3 -15
-14 -37 -23 -48 -19 -21 -32 -42 -75 -120 -15 -29 -33 -55 -38 -58 -5 -4 -9
-15 -9 -25 0 -10 -4 -20 -8 -22 -5 -1 -23 -28 -40 -59 -18 -31 -39 -62 -47
-69 -8 -7 -15 -18 -15 -25 0 -6 -26 -49 -57 -93 -59 -84 -107 -156 -133 -201
-8 -14 -19 -29 -23 -32 -5 -4 -14 -16 -20 -27 -7 -12 -40 -58 -75 -104 -34
-46 -65 -87 -70 -93 -4 -5 -30 -39 -58 -75 -27 -36 -88 -114 -134 -175 -46
-60 -101 -128 -122 -150 -22 -22 -45 -47 -52 -55 -6 -8 -32 -40 -56 -70 -25
-30 -54 -64 -65 -75 -11 -11 -42 -47 -70 -80 -60 -73 -134 -151 -377 -399
-104 -105 -188 -192 -188 -193 0 -26 400 371 540 536 25 29 59 67 76 84 42 44
161 181 214 247 24 30 49 60 55 65 6 6 27 30 46 55 19 25 45 57 58 72 13 15
42 54 65 86 23 33 75 104 117 159 77 99 369 527 369 540 0 3 7 15 17 25 20 22
38 54 54 91 6 15 15 27 20 27 5 0 9 4 9 9 0 6 32 64 70 130 39 66 70 124 70
129 0 6 4 12 8 14 4 2 18 25 31 52 12 26 34 67 48 90 15 22 26 43 26 46 0 3
23 52 52 110 29 58 58 122 65 142 13 44 25 55 27 27 1 -11 -2 -17 -6 -15 -4 3
-8 -5 -8 -17 -2 -16 0 -18 6 -8 5 7 14 11 20 7 6 -4 9 -1 7 6 -3 7 -7 25 -10
41 -9 39 -24 33 -46 -19z"/>
<path d="M16275 9255 c-5 -16 -11 -32 -14 -35 -12 -10 -41 -72 -41 -88 0 -15
-2 -15 -11 -2 -8 12 -9 10 -4 -9 5 -17 4 -22 -5 -16 -8 5 -11 4 -7 -2 6 -10
-33 -94 -58 -123 -7 -8 -10 -21 -7 -29 2 -8 0 -11 -5 -8 -5 3 -10 1 -10 -6 0
-7 -16 -39 -37 -72 -20 -33 -36 -69 -36 -79 0 -11 -3 -16 -7 -13 -3 4 -14 -10
-24 -31 -10 -20 -36 -65 -58 -99 -22 -35 -38 -63 -35 -63 3 0 -5 -15 -18 -32
-27 -39 -42 -62 -64 -103 -31 -57 -147 -230 -155 -233 -5 -2 -9 -7 -9 -12 0
-5 -19 -36 -42 -70 -24 -35 -50 -72 -58 -85 -24 -35 -129 -178 -200 -272 -36
-47 -76 -100 -90 -119 -47 -62 -108 -139 -132 -166 -13 -14 -34 -40 -48 -57
-35 -43 -59 -71 -100 -117 -20 -21 -42 -48 -50 -60 -8 -12 -37 -45 -64 -75
-132 -146 -249 -271 -322 -346 -45 -46 -78 -86 -72 -89 5 -3 39 26 76 65 224
235 366 389 371 404 2 6 17 24 33 41 56 59 65 70 188 216 25 29 51 59 58 66 6
7 12 17 12 22 0 6 4 12 8 14 5 2 42 48 82 103 41 55 82 106 92 113 10 7 18 18
18 23 0 5 9 20 21 32 11 12 50 67 87 122 36 55 81 118 99 141 18 23 33 45 33
51 0 5 8 18 19 29 10 11 38 52 62 90 23 38 53 82 66 97 13 16 23 34 23 41 0 7
12 31 28 53 30 43 37 54 84 133 49 82 65 111 87 157 11 24 36 67 56 98 19 30
35 62 35 71 0 9 5 12 13 8 6 -4 9 -4 5 1 -4 4 5 33 21 64 16 31 32 66 36 79 4
12 11 20 16 16 5 -3 8 -2 7 3 -3 10 30 93 38 93 3 0 2 -5 -2 -12 -4 -7 -3 -8
5 -4 6 4 9 15 7 24 -3 10 -1 24 4 32 8 12 10 12 10 1 0 -8 2 -12 5 -10 2 3 1
18 -4 35 l-8 29 -8 -30z"/>
<path d="M16294 9176 c0 -13 4 -22 9 -19 13 8 7 -16 -13 -54 -11 -21 -20 -44
-20 -51 0 -7 -4 -10 -10 -7 -5 3 -10 -1 -10 -9 0 -9 -10 -32 -21 -53 -12 -21
-41 -74 -64 -118 -23 -44 -59 -111 -80 -150 -21 -38 -43 -80 -49 -92 -6 -13
-14 -23 -18 -23 -5 0 -8 -4 -8 -9 0 -11 -126 -218 -207 -341 -18 -27 -33 -54
-33 -59 0 -5 -3 -11 -8 -13 -12 -5 -68 -80 -85 -114 -8 -16 -64 -96 -124 -176
-59 -80 -115 -156 -123 -168 -13 -20 -103 -136 -166 -215 -13 -16 -34 -43 -46
-60 -12 -16 -28 -34 -34 -40 -7 -5 -36 -39 -65 -75 -29 -36 -57 -66 -61 -68
-4 -2 -8 -10 -8 -17 0 -8 -9 -17 -20 -20 -11 -3 -20 -10 -20 -14 0 -5 -27 -39
-60 -76 -33 -37 -60 -71 -60 -76 0 -4 -8 -10 -18 -13 -9 -3 -24 -17 -32 -30
-8 -14 -45 -56 -82 -94 -38 -38 -68 -76 -68 -83 0 -14 137 125 219 221 25 30
60 68 76 86 17 17 50 55 75 84 25 30 55 64 67 77 12 12 34 39 50 60 31 42 40
53 84 103 17 19 44 54 60 78 17 23 33 42 37 42 4 0 16 14 26 31 10 16 46 66
79 111 34 44 69 90 77 101 8 12 43 62 77 110 35 48 63 91 63 95 0 4 13 23 30
42 16 19 29 40 30 47 0 7 6 16 14 20 12 7 66 88 148 222 18 29 41 65 50 80 10
14 21 33 25 41 3 8 14 26 23 40 17 25 57 95 92 160 10 19 35 64 55 100 19 36
53 99 74 140 21 41 42 74 46 72 4 -2 9 2 11 10 2 9 0 8 -7 -2 -6 -8 -11 -10
-11 -5 0 14 16 37 25 37 4 0 12 -6 17 -14 8 -10 9 -10 5 2 -2 8 -10 14 -17 12
-6 -1 -10 1 -8 5 37 73 49 108 39 111 -6 2 -11 10 -11 17 0 8 -4 16 -9 19 -5
3 -8 -5 -7 -18z"/>
<path d="M16333 9023 c0 -13 -11 -40 -25 -61 -13 -20 -30 -53 -38 -72 -7 -19
-28 -57 -45 -85 -17 -27 -39 -67 -49 -88 -10 -22 -22 -35 -28 -31 -7 5 -9 2
-5 -8 3 -9 0 -24 -7 -34 -7 -11 -30 -50 -51 -89 -21 -38 -41 -72 -45 -75 -4
-3 -15 -21 -25 -40 -10 -19 -29 -49 -41 -66 -13 -17 -24 -34 -24 -38 0 -4 -17
-33 -37 -64 -21 -32 -42 -65 -48 -74 -23 -37 -95 -144 -104 -155 -6 -7 -11
-15 -11 -18 0 -3 -22 -35 -50 -70 -27 -35 -50 -69 -50 -73 0 -5 -7 -16 -16
-23 -9 -7 -38 -45 -65 -84 -27 -38 -72 -100 -101 -136 -29 -37 -66 -84 -83
-105 -16 -22 -56 -71 -87 -111 -32 -39 -58 -76 -58 -82 0 -6 -7 -11 -15 -11
-8 0 -15 -4 -15 -9 0 -4 -10 -19 -22 -33 -13 -13 -36 -42 -53 -64 -16 -21 -41
-50 -55 -64 -14 -14 -38 -41 -54 -60 -49 -60 -194 -220 -264 -292 -20 -21 -33
-41 -29 -44 4 -4 22 10 39 31 18 21 58 63 88 94 30 31 87 92 125 135 39 44 75
84 80 90 19 21 70 82 105 126 19 24 46 57 60 72 45 48 124 150 162 206 9 14
21 28 26 31 17 12 158 200 217 289 13 21 37 52 52 66 6 7 28 39 49 72 21 32
46 68 56 78 10 11 18 23 18 28 0 4 0 10 0 13 0 3 12 18 26 34 24 27 68 93 105
158 9 15 49 80 89 143 40 63 81 133 92 155 12 22 23 42 27 45 3 3 21 34 39 70
19 36 51 97 73 135 21 39 43 82 49 97 7 15 20 44 31 64 23 45 23 51 5 51 -8 0
-13 -11 -13 -24z"/>
<path d="M16181 8570 c-13 -27 -28 -50 -32 -50 -5 0 -9 -5 -9 -12 0 -6 -25
-51 -55 -101 -30 -49 -55 -93 -55 -98 0 -5 -4 -9 -10 -9 -5 0 -10 -5 -10 -10
0 -6 -45 -78 -100 -160 -55 -82 -100 -153 -100 -157 0 -5 -11 -20 -25 -35 -14
-15 -25 -30 -25 -34 0 -10 -254 -347 -274 -363 -9 -7 -16 -20 -16 -27 0 -8 -4
-14 -8 -14 -5 0 -24 -21 -42 -47 -19 -27 -38 -49 -42 -51 -4 -2 -8 -8 -8 -13
0 -29 25 0 213 249 15 20 36 46 45 57 24 27 73 96 139 195 31 47 59 87 63 90
11 9 137 205 143 223 4 9 11 17 16 17 5 0 13 10 16 23 4 12 17 36 30 52 12 17
30 44 39 60 9 17 25 44 36 60 11 17 31 53 46 80 14 28 32 57 39 65 17 20 29
60 18 60 -5 0 -19 -22 -32 -50z"/>
<path d="M16155 8218 c-11 -17 -31 -50 -45 -72 -14 -23 -37 -58 -52 -77 -16
-20 -28 -40 -28 -45 0 -5 -20 -36 -45 -69 -25 -33 -45 -63 -45 -67 0 -3 -6
-13 -13 -20 -7 -7 -21 -26 -31 -43 -10 -16 -25 -37 -33 -45 -7 -8 -30 -40 -50
-70 -20 -30 -40 -56 -45 -58 -4 -2 -8 -8 -8 -13 0 -10 -23 -40 -62 -82 -16
-16 -28 -31 -28 -34 0 -9 -72 -106 -132 -176 -32 -38 -58 -74 -58 -80 1 -19
169 186 200 243 5 10 22 31 37 47 40 42 63 72 63 82 0 5 4 11 9 13 4 2 26 30
47 63 21 33 41 64 46 70 29 35 98 131 98 138 0 4 5 13 10 20 26 30 151 224
172 265 6 12 15 22 20 22 4 0 8 5 8 10 0 19 -15 10 -35 -22z"/>
<path d="M12526 5570 c-31 -22 -59 -40 -62 -40 -3 0 -25 -13 -49 -30 -24 -16
-55 -34 -69 -40 -14 -5 -26 -13 -26 -18 0 -5 -19 -18 -42 -31 -61 -32 -112
-62 -118 -70 -3 -4 -27 -19 -55 -33 -90 -47 -120 -63 -125 -68 -3 -3 -52 -32
-110 -64 -58 -33 -122 -69 -142 -82 -21 -13 -43 -24 -50 -24 -8 0 -29 -10 -48
-23 -19 -13 -51 -29 -70 -37 -19 -8 -52 -24 -72 -37 -21 -13 -44 -23 -52 -23
-8 0 -18 -4 -21 -10 -5 -8 -36 -24 -170 -86 -16 -8 -37 -18 -45 -24 -14 -8
-64 -31 -175 -81 -23 -10 -32 -18 -22 -18 17 -1 63 18 177 71 25 12 52 25 60
30 8 4 24 12 35 17 83 36 635 320 645 332 3 3 30 18 60 33 30 16 62 34 70 41
8 7 35 23 59 35 24 12 53 30 64 41 12 10 27 19 34 19 7 0 13 4 13 8 0 5 23 19
50 32 28 13 50 27 50 32 0 4 7 8 15 8 8 0 15 4 15 9 0 5 11 12 25 15 13 3 35
17 49 31 14 14 29 25 35 25 14 0 131 82 131 92 0 12 -2 11 -64 -32z"/>
<path d="M12650 5555 c-19 -14 -44 -31 -55 -40 -10 -8 -24 -15 -31 -15 -6 0
-17 -7 -24 -15 -7 -8 -32 -25 -56 -37 -24 -12 -44 -25 -44 -28 0 -4 -27 -22
-60 -39 -33 -18 -60 -36 -60 -40 0 -4 -6 -8 -12 -8 -7 0 -33 -14 -58 -30 -25
-17 -72 -45 -105 -63 -33 -18 -62 -35 -65 -39 -4 -5 -113 -63 -177 -95 -13 -6
-23 -14 -23 -18 0 -13 32 -9 49 6 9 7 45 28 81 47 36 19 74 42 84 51 11 10 34
22 53 29 18 6 33 15 33 20 0 5 6 9 13 9 7 0 22 8 33 18 11 9 29 22 40 28 10 6
46 26 79 44 33 18 88 53 122 77 34 23 64 43 68 43 6 0 87 51 95 60 3 4 22 16
43 29 20 12 37 25 37 27 0 11 -28 1 -60 -21z"/>
</g>
</svg>
